<svg style="display: none">
  <symbol id="plain" viewBox="0 0 18 20"
    xmlns="http://www.w3.org/2000/svg">
    <path
      d="M15.7831 0.0931421C15.0546 0.266353 14.3227 0.440377 14.0504 0.917233L11.9433 5.11585L0.629163 7.8059L0.170763 9.14743L8.82861 9.96616L7.35967 13.6009L4.07624 14.3816L3.25187 15.8101L5.62062 16.0673L5.89073 17.2357C6.01174 17.6498 6.43649 17.9263 6.79903 17.8401L7.89351 17.5799L9.16224 19.7433L9.98661 18.3148L9.17628 14.8098L11.5535 11.7795L16.0895 19.741L17.0042 18.7031L14.2128 6.62921L16.7762 2.73424C17.0519 2.25657 16.8721 1.47891 16.6914 0.697594C16.6019 0.310588 16.1457 0.0069433 15.7831 0.0931421Z" />
  </symbol>
  <symbol id="bus" viewBox="0 0 18 21"
  xmlns="http://www.w3.org/2000/svg">
  <path
    d="M4.34046 13.9485C4.34046 13.5699 4.20185 13.2467 3.92462 12.9788C3.64739 12.711 3.31288 12.5771 2.92106 12.5771C2.52925 12.5771 2.19473 12.711 1.91751 12.9788C1.64028 13.2467 1.50167 13.5699 1.50167 13.9485C1.50167 14.3271 1.64028 14.6503 1.91751 14.9181C2.19473 15.186 2.52925 15.3199 2.92106 15.3199C3.31288 15.3199 3.64739 15.186 3.92462 14.9181C4.20185 14.6503 4.34046 14.3271 4.34046 13.9485ZM15.6956 13.9485C15.6956 13.5699 15.557 13.2467 15.2798 12.9788C15.0025 12.711 14.668 12.5771 14.2762 12.5771C13.8844 12.5771 13.5499 12.711 13.2727 12.9788C12.9954 13.2467 12.8568 13.5699 12.8568 13.9485C12.8568 14.3271 12.9954 14.6503 13.2727 14.9181C13.5499 15.186 13.8844 15.3199 14.2762 15.3199C14.668 15.3199 15.0025 15.186 15.2798 14.9181C15.557 14.6503 15.6956 14.3271 15.6956 13.9485ZM15.1855 9.70563L14.3871 5.59135C14.3501 5.42706 14.267 5.29313 14.1376 5.18956C14.0082 5.08599 13.8585 5.0342 13.6885 5.0342H3.50878C3.33875 5.0342 3.18905 5.08599 3.05968 5.18956C2.9303 5.29313 2.84714 5.42706 2.81017 5.59135L2.01176 9.70563C1.9748 9.91992 2.02655 10.1092 2.16701 10.2735C2.30747 10.4378 2.48859 10.5199 2.71037 10.5199H14.4869C14.7087 10.5199 14.8898 10.4378 15.0303 10.2735C15.1707 10.1092 15.2225 9.91992 15.1855 9.70563ZM12.6794 3.14849C12.6794 3.00563 12.6276 2.88421 12.5242 2.78421C12.4207 2.68421 12.295 2.63421 12.1471 2.63421H5.05015C4.9023 2.63421 4.77663 2.68421 4.67313 2.78421C4.56963 2.88421 4.51788 3.00563 4.51788 3.14849C4.51788 3.29135 4.56963 3.41278 4.67313 3.51278C4.77663 3.61278 4.9023 3.66278 5.05015 3.66278H12.1471C12.295 3.66278 12.4207 3.61278 12.5242 3.51278C12.6276 3.41278 12.6794 3.29135 12.6794 3.14849ZM17.115 10.9163V17.3771H15.6956V18.7485C15.6956 19.1271 15.557 19.4503 15.2798 19.7181C15.0025 19.986 14.668 20.1199 14.2762 20.1199C13.8844 20.1199 13.5499 19.986 13.2727 19.7181C12.9954 19.4503 12.8568 19.1271 12.8568 18.7485V17.3771H4.34046V18.7485C4.34046 19.1271 4.20185 19.4503 3.92462 19.7181C3.64739 19.986 3.31288 20.1199 2.92106 20.1199C2.52925 20.1199 2.19473 19.986 1.91751 19.7181C1.64028 19.4503 1.50167 19.1271 1.50167 18.7485V17.3771H0.0822754V10.9163C0.0822754 10.1163 0.174684 9.31992 0.359501 8.52706L1.50167 3.66278C1.5682 3.10563 1.9286 2.61635 2.58285 2.19492C3.2371 1.77349 4.08726 1.45564 5.13332 1.24135C6.17939 1.02706 7.33449 0.919922 8.59864 0.919922C9.86279 0.919922 11.0179 1.02706 12.064 1.24135C13.11 1.45564 13.9602 1.77349 14.6144 2.19492C15.2687 2.61635 15.6291 3.10563 15.6956 3.66278L16.86 8.52706C17.03 9.25563 17.115 10.0521 17.115 10.9163Z" />
  </symbol>
  <symbol  id="bicycle" viewBox="0 0 25 24"
    xmlns="http://www.w3.org/2000/svg">
    <path
      d="M18.3075 21C17.4664 21 16.6442 20.7471 15.9449 20.2732C15.2456 19.7994 14.7005 19.1258 14.3786 18.3378C14.0568 17.5498 13.9726 16.6827 14.1366 15.8462C14.3007 15.0096 14.7057 14.2412 15.3005 13.6381C15.8952 13.035 16.6529 12.6243 17.4779 12.4579C18.3028 12.2915 19.1578 12.3769 19.9349 12.7033C20.7119 13.0297 21.3761 13.5824 21.8434 14.2916C22.3106 15.0008 22.5601 15.8346 22.5601 16.6875C22.5588 17.8309 22.1104 18.927 21.3132 19.7355C20.5159 20.544 19.435 20.9988 18.3075 21V21ZM18.3075 13.875C17.759 13.875 17.2228 14.04 16.7667 14.349C16.3106 14.658 15.9551 15.0973 15.7452 15.6112C15.5353 16.1251 15.4804 16.6906 15.5874 17.2362C15.6944 17.7818 15.9585 18.2829 16.3464 18.6762C16.7343 19.0696 17.2284 19.3374 17.7664 19.446C18.3044 19.5545 18.8621 19.4988 19.3688 19.2859C19.8756 19.073 20.3088 18.7126 20.6135 18.25C20.9182 17.7875 21.0809 17.2438 21.0809 16.6875C21.08 15.9418 20.7876 15.227 20.2676 14.6997C19.7477 14.1725 19.0428 13.8759 18.3075 13.875V13.875Z" />
    <path
      d="M6.10449 21C5.26342 21 4.44123 20.7471 3.7419 20.2732C3.04257 19.7994 2.4975 19.1258 2.17564 18.3378C1.85377 17.5498 1.76956 16.6827 1.93364 15.8462C2.09773 15.0096 2.50275 14.2412 3.09748 13.6381C3.69221 13.035 4.44994 12.6243 5.27486 12.4579C6.09978 12.2915 6.95483 12.3769 7.73188 12.7033C8.50893 13.0297 9.17309 13.5824 9.64037 14.2916C10.1076 15.0008 10.3571 15.8346 10.3571 16.6875C10.3558 17.8309 9.9074 18.927 9.11016 19.7355C8.31291 20.544 7.23197 20.9988 6.10449 21V21ZM6.10449 13.875C5.55596 13.875 5.01975 14.04 4.56367 14.349C4.10758 14.658 3.75211 15.0973 3.5422 15.6112C3.33228 16.1251 3.27736 16.6906 3.38437 17.2362C3.49139 17.7818 3.75553 18.2829 4.1434 18.6762C4.53126 19.0696 5.02544 19.3374 5.56343 19.446C6.10142 19.5545 6.65906 19.4988 7.16583 19.2859C7.67261 19.073 8.10575 18.7126 8.4105 18.25C8.71525 17.7875 8.8779 17.2438 8.8779 16.6875C8.87705 15.9418 8.58458 15.227 8.06465 14.6997C7.54472 14.1725 6.83979 13.8759 6.10449 13.875V13.875Z" />
    <path
      d="M15.1644 6.00005C15.3592 6.00073 15.5522 5.96225 15.7323 5.88681C15.9123 5.81138 16.0759 5.7005 16.2134 5.56058C16.351 5.42065 16.4598 5.25447 16.5336 5.07163C16.6074 4.88879 16.6448 4.69293 16.6435 4.49536C16.6457 4.29878 16.6092 4.10374 16.5361 3.92164C16.4631 3.73954 16.3549 3.57403 16.2181 3.4348C16.0812 3.29558 15.9183 3.18542 15.739 3.11077C15.5597 3.03612 15.3675 2.99848 15.1736 3.00005C14.9794 2.99943 14.7869 3.03762 14.6072 3.11243C14.4275 3.18725 14.2641 3.29722 14.1263 3.43607C13.9885 3.57492 13.8791 3.73994 13.8042 3.92169C13.7293 4.10344 13.6904 4.29838 13.6898 4.49536C13.6892 4.69234 13.7269 4.88752 13.8007 5.06974C13.8744 5.25197 13.9829 5.41767 14.1198 5.55739C14.2567 5.69712 14.4194 5.80812 14.5987 5.88407C14.7779 5.96002 14.9701 5.99943 15.1644 6.00005V6.00005Z" />
    <path
      d="M17.3622 9.00003H15.3395C15.3063 9.00004 15.2737 8.99099 15.2452 8.97384C15.2167 8.95668 15.1932 8.93205 15.1773 8.90253L13.7101 6.17581C13.6068 5.97318 13.4578 5.79807 13.2753 5.66467C13.0928 5.53127 12.8818 5.44333 12.6596 5.40795C12.4373 5.37258 12.21 5.39077 11.996 5.46106C11.7819 5.53135 11.5872 5.65175 11.4276 5.81253L8.19843 9.11253C7.92715 9.39333 7.77316 9.76945 7.76855 10.1625C7.76855 10.9782 8.35097 11.2688 8.62369 11.4328C9.94106 12.2025 10.8688 12.7655 11.3777 13.0782C11.4047 13.0949 11.4271 13.1183 11.4427 13.1463C11.4582 13.1743 11.4664 13.2059 11.4664 13.238V16.478C11.4664 16.8816 11.7724 17.228 12.1704 17.2482C12.2703 17.253 12.3702 17.2373 12.464 17.2019C12.5577 17.1666 12.6434 17.1123 12.7159 17.0423C12.7883 16.9724 12.8461 16.8883 12.8855 16.7951C12.925 16.7018 12.9455 16.6015 12.9456 16.5V12.4688C12.9457 12.3497 12.9178 12.2324 12.8642 12.1264C12.8107 12.0204 12.7331 11.9289 12.6377 11.8594L10.9275 10.6121C10.906 10.5965 10.8881 10.5764 10.8749 10.5532C10.8617 10.53 10.8536 10.5043 10.851 10.4776C10.8485 10.451 10.8516 10.4241 10.8602 10.3988C10.8687 10.3734 10.8825 10.3503 10.9007 10.3308L12.842 8.23128C12.862 8.20968 12.8866 8.19316 12.914 8.18307C12.9414 8.17297 12.9708 8.1696 12.9997 8.17321C13.0287 8.17682 13.0563 8.18731 13.0805 8.20384C13.1047 8.22037 13.1247 8.24246 13.1388 8.26831L14.1474 10.1143C14.2115 10.2313 14.3053 10.3288 14.4191 10.3966C14.5329 10.4644 14.6625 10.5001 14.7945 10.5H17.383C17.4832 10.5002 17.5824 10.4796 17.6745 10.4397C17.7667 10.3998 17.8498 10.3413 17.919 10.2678C17.9882 10.1942 18.0419 10.1073 18.0769 10.012C18.1119 9.91685 18.1274 9.81543 18.1226 9.71394C18.1032 9.31035 17.7602 9.00003 17.3622 9.00003Z" />
  </symbol>
  <symbol id="walk" viewBox="0 0 21 24" xmlns="http://www.w3.org/2000/svg">
  <path
    d="M14.9758 5.75992C15.9264 5.75992 16.697 4.90031 16.697 3.83992C16.697 2.77954 15.9264 1.91992 14.9758 1.91992C14.0252 1.91992 13.2546 2.77954 13.2546 3.83992C13.2546 4.90031 14.0252 5.75992 14.9758 5.75992Z" />
  <path
    d="M13.9233 10.5302C14.1209 10.8586 14.4043 11.1113 14.735 11.2538C15.0657 11.3964 15.4277 11.4219 15.7719 11.327L18.6256 10.5312L18.21 8.66881L15.3562 9.46465L14.1695 7.48033C13.9159 7.05655 13.5224 6.76184 13.0748 6.66049L9.76493 5.92129C9.39465 5.83839 9.01021 5.89379 8.67097 6.07893C8.33173 6.26406 8.05657 6.56863 7.88797 6.94561L6.4611 10.129L8.00071 10.9882L9.42758 7.80385L11.1204 8.18209L6.74338 16.32H2.92749V18.24H6.74338C7.34407 18.24 7.90949 17.8829 8.2193 17.3078L9.86993 14.2397L14.3184 15.2323L15.8812 20.4634L17.5129 19.8557L15.9509 14.6256C15.8545 14.3045 15.684 14.0174 15.4564 13.7933C15.2289 13.5691 14.9524 13.4158 14.6548 13.3488L12.0395 12.7661L13.5645 9.93025L13.9233 10.5302V10.5302Z" />
  </symbol>
  <symbol id="menu-toggle-open" viewBox="0 0 25 11" xmlns="http://www.w3.org/2000/svg">
    <rect width="25" height="3" rx="1.5" />
    <rect y="8" width="25" height="3" rx="1.5" />
  </symbol>
  <symbol id="toggle-close" viewBox="0 0 14 14" xmlns="http://www.w3.org/2000/svg">
    <path d="M12.25 1.75L1.75 12.25" stroke-width="1.4" stroke-linecap="round"
      stroke-linejoin="round" />
    <path d="M1.75 1.75L12.25 12.25" stroke-width="1.4" stroke-linecap="round"
      stroke-linejoin="round" />
  </symbol>
  <symbol id="menu-dash" viewBox="0 0 60 2" xmlns="http://www.w3.org/2000/svg">
    <rect width="60" height="2" />
  </symbol>
  <symbol id="phone" viewBox="0 0 19 19" xmlns="http://www.w3.org/2000/svg">
    <path
      d="M9.77429 8.22389C9.77429 8.41289 9.92792 8.56139 10.1157 8.56139C10.5048 8.56139 10.8189 8.87526 10.8189 9.25664C10.8189 9.44226 10.9725 9.59414 11.1603 9.59414C11.348 9.59414 11.5017 9.44226 11.5017 9.25664C11.5017 8.50064 10.8804 7.88639 10.1157 7.88639C9.92792 7.88639 9.77429 8.03827 9.77429 8.22389ZM15.332 9.59414C15.5231 9.59414 15.6733 9.44226 15.6733 9.25664C15.6733 6.22589 13.1813 3.76215 10.1157 3.76215C9.92792 3.76215 9.77429 3.914 9.77429 4.09965C9.77429 4.28527 9.92792 4.43715 10.1157 4.43715C12.8057 4.43715 14.9906 6.60051 14.9906 9.25664C14.9906 9.44226 15.1442 9.59414 15.332 9.59414Z" />
    <path
      d="M12.9047 9.25661C12.9047 9.44223 13.0583 9.59411 13.2461 9.59411C13.4339 9.59411 13.5875 9.44223 13.5875 9.25661C13.5875 7.36324 12.0308 5.82424 10.1157 5.82424C9.9279 5.82424 9.77427 5.97612 9.77427 6.16174C9.77427 6.35074 9.9279 6.49924 10.1157 6.49924C11.6553 6.49924 12.9047 7.73786 12.9047 9.25661ZM10.1157 1.69998C9.9279 1.69998 9.77427 1.85186 9.77427 2.03748C9.77427 2.22312 9.9279 2.37498 10.1157 2.37498C13.9562 2.37498 17.0798 5.46312 17.0798 9.25661C17.0798 9.44223 17.23 9.59411 17.4212 9.59411C17.6089 9.59411 17.7626 9.44223 17.7626 9.25661C17.7626 5.0885 14.3317 1.69998 10.1157 1.69998ZM13.4509 12.8139L13.0037 13.0535C12.2493 13.4619 11.6622 14.5812 10.7312 13.7375L8.30011 11.3L6.20004 9.25661C5.14495 7.92348 6.32635 7.60623 6.73941 6.85699L6.98179 6.41825C7.25489 5.91873 7.35388 5.35849 7.27196 4.79823C7.19345 4.23799 6.93741 3.72836 6.52775 3.32336C6.02935 2.83062 5.36707 2.56062 4.66042 2.56062C3.95376 2.56062 3.28807 2.83062 2.78964 3.32336L2.61556 3.49886C1.69383 4.41012 1.588 5.97948 2.31514 7.92348C3.0013 9.77973 4.3839 11.7912 6.20004 13.5867C8.96862 16.3239 12.0513 17.9 14.2634 17.9C15.1373 17.9 15.8781 17.6536 16.4039 17.1339L16.5814 16.9584C17.0764 16.469 17.3529 15.8142 17.3563 15.1089C17.3529 14.4204 17.0695 13.7454 16.5814 13.2627C15.7587 12.4494 14.4717 12.2671 13.4509 12.8139Z" />
  </symbol>
  <symbol id="mail" viewBox="0 0 17 14" xmlns="http://www.w3.org/2000/svg">
    <path
      d="M1.0166 2.32528L7.7666 6.55572C7.9934 6.69747 8.2868 6.76467 8.582 6.76467C8.8772 6.76467 9.1706 6.69747 9.3974 6.55572L16.1474 2.32528C16.5875 2.04913 17.0033 0.974976 16.196 0.974976H0.968901C0.161601 0.974976 0.577401 2.04913 1.0166 2.32528ZM16.3517 4.63842L9.3974 8.86677C9.0914 9.05367 8.8772 9.07572 8.582 9.07572C8.2868 9.07572 8.0726 9.05367 7.7666 8.86677C7.4606 8.67987 1.3469 4.94082 0.847401 4.63737C0.496401 4.42317 0.500001 4.67412 0.500001 4.86732V12.525C0.500001 12.966 1.0094 13.575 1.4 13.575H15.8C16.1906 13.575 16.7 12.966 16.7 12.525V4.86837C16.7 4.67517 16.7036 4.42422 16.3517 4.63842Z" />
  </symbol>
  <symbol id="home-phone" viewBox="0 0 17 15" xmlns="http://www.w3.org/2000/svg">
    <path fill-rule="evenodd" clip-rule="evenodd"
      d="M8.49995 0.0861511C5.7035 0.0861511 2.90033 0.558819 1.88322 1.50093C1.03934 2.28252 0.758038 3.66329 0.663214 4.53753C0.663214 4.53753 0.650146 4.62393 0.650146 4.66109C0.650146 5.00391 0.944447 5.27887 1.30427 5.27887C1.34678 5.27887 2.92002 5.15837 3.86851 5.08425C3.89134 5.08112 3.91434 5.07806 3.93716 5.07191C4.29043 5.0627 4.57505 4.7908 4.57505 4.45413L4.57822 3.237C4.57822 2.86014 4.90214 2.55737 5.3012 2.55737H11.6987C12.0978 2.55737 12.4218 2.86011 12.4218 3.237L12.425 4.45413C12.425 4.7908 12.7095 5.0627 13.0628 5.07191C13.0854 5.0781 13.1085 5.08112 13.1315 5.08425C14.0801 5.15834 15.6533 5.27887 15.6957 5.27887C16.0553 5.27887 16.3499 5.00391 16.3499 4.66109C16.3499 4.62393 16.3368 4.53753 16.3368 4.53753C16.2419 3.66329 15.9609 2.28255 15.117 1.50093C14.0996 0.558819 11.2964 0.0861511 8.49995 0.0861511ZM8.49995 8.11773C7.7771 8.11773 7.19164 8.67064 7.19164 9.35333C7.19164 10.036 7.7771 10.5889 8.49995 10.5889C9.22279 10.5889 9.80823 10.036 9.80823 9.35333C9.80823 8.67064 9.22279 8.11773 8.49995 8.11773ZM7.51873 5.33752V4.56528C7.51873 4.13902 7.15236 3.79304 6.70106 3.79304C6.24977 3.79304 5.8834 4.13905 5.8834 4.56528V5.33752L1.47095 9.7889C1.16689 10.07 0.977135 10.4622 0.977135 10.8948V12.1335C0.977135 12.8162 1.56264 13.3691 2.28545 13.3691H2.61254V14.1414C2.61254 14.5677 2.97895 14.9136 3.43025 14.9136C3.88154 14.9136 4.24792 14.5677 4.24792 14.1414V13.3691H12.752V14.1414C12.752 14.5677 13.1182 14.9136 13.5697 14.9136C14.021 14.9136 14.3873 14.5677 14.3873 14.1414V13.3691H14.7144C15.4373 13.3691 16.0227 12.8162 16.0227 12.1335V10.8948C16.0227 10.4622 15.833 10.07 15.5289 9.7889L11.1166 5.33752V4.56528C11.1166 4.13902 10.7502 3.79304 10.2989 3.79304C9.84757 3.79304 9.48124 4.13905 9.48124 4.56528V5.33752H7.51873ZM8.49995 6.8821C9.94564 6.8821 11.1166 7.98799 11.1166 9.35333C11.1166 10.7187 9.94567 11.8247 8.49995 11.8247C7.05426 11.8247 5.88336 10.7187 5.88336 9.35333C5.88336 7.98795 7.05426 6.8821 8.49995 6.8821Z" />
  </symbol>
  <symbol id="e-mail" viewBox="0 0 19 13" xmlns="http://www.w3.org/2000/svg">
    <path fill-rule="evenodd" clip-rule="evenodd"
      d="M16.1393 10.4663L11.8089 6.5L16.1393 2.53365L15.5488 1.90264L9.24997 7.67188L2.95117 1.90264L2.36066 2.53365L6.69108 6.5L2.36066 10.4663L2.95117 11.0974L7.33081 7.08594L9.24997 8.84375L11.1691 7.08594L15.5488 11.0974L16.1393 10.4663ZM1.57593 0.25C0.76692 0.25 0.111084 0.948839 0.111084 1.80786V11.1921C0.111084 12.0525 0.7616 12.75 1.57593 12.75H16.924C17.733 12.75 18.3889 12.0512 18.3889 11.1921V1.80786C18.3889 0.947478 17.7383 0.25 16.924 0.25H1.57593Z" />
  </symbol>
  <symbol id="facebook" viewBox="0 0 11 21" xmlns="http://www.w3.org/2000/svg">
    <path
      d="M7.48786 20.8125H2.12929V11.1375H0V6.3525H2.06643C1.90929 4.185 2.30214 2.6025 3.26071 1.5225C3.71777 1.04316 4.27461 0.66015 4.89562 0.397985C5.51662 0.13582 6.18812 0.000268301 6.86714 0L10.6229 0V4.6125H7.66857C7.49452 5.1766 7.42799 5.76595 7.47214 6.3525H10.615V11.1375H7.47214L7.48786 20.8125ZM3.31571 19.6875H6.28571V10.0125H9.42857V7.5H6.28571V6.93C6.28571 5.43 6.28571 4.0875 7.07143 3.585L7.22071 3.4875H9.42857V1.125H6.89857C6.38444 1.11866 5.87465 1.21553 5.40225 1.40933C4.92986 1.60314 4.50541 1.88955 4.15643 2.25C3.37071 3.1725 3.04857 4.7175 3.29214 6.855L3.37071 7.4775H1.17857V10.0125H3.31571V19.6875Z" />
  </symbol>
  <symbol id="vk" viewBox="0 0 23 12" xmlns="http://www.w3.org/2000/svg">
    <path
      d="M17.7664 11.8331C17.219 11.8207 16.6854 11.6573 16.2232 11.3606C15.7407 11.031 15.2975 10.6459 14.9026 10.2131C14.5761 9.88315 14.0345 9.32815 13.8268 9.32815C13.619 9.32815 13.4706 10.0181 13.478 10.5056C13.4812 10.8422 13.3564 11.167 13.1293 11.4131C12.8712 11.6263 12.5561 11.7569 12.2242 11.7881H10.7997C8.75222 11.7426 6.79178 10.9425 5.28708 9.53815C2.55676 7.01065 0.21224 2.18065 0.115789 1.97065C0.0237889 1.79521 -0.0147389 1.59616 0.00506792 1.3986C0.0248747 1.20105 0.102128 1.01386 0.227079 0.860649C0.509857 0.622256 0.867951 0.494496 1.23611 0.500649H4.26321H4.35224C4.6027 0.537588 4.84277 0.626997 5.05708 0.763149C5.25875 0.899848 5.42022 1.08899 5.5245 1.31065C5.8444 2.00295 6.2113 2.67204 6.62256 3.31315C7.5945 4.81315 8.02482 5.15815 8.18063 5.23315C8.35396 4.52985 8.40169 3.80091 8.3216 3.08065C8.3476 2.7526 8.29412 2.4231 8.16579 2.12065C8.00289 1.98893 7.80288 1.91278 7.5945 1.90315L7.05289 1.38565C6.94901 0.890649 7.49063 0.463149 7.86902 0.298149C8.62414 0.0589723 9.41638 -0.0376377 10.2061 0.013149H10.7329C11.2686 -0.000953053 11.8041 0.0494006 12.328 0.163149C13.5893 0.433149 13.5448 1.46065 13.4929 2.64565C13.4929 2.99065 13.4558 3.39565 13.4558 3.86065C13.4558 3.97315 13.4558 4.09315 13.4558 4.22065C13.4266 4.54717 13.4492 4.87631 13.5226 5.19565C14.1402 4.67331 14.6604 4.04337 15.0584 3.33565C15.4879 2.66645 15.865 1.96431 16.1861 1.23565V1.23565C16.2839 1.00519 16.4516 0.812043 16.6649 0.684009C16.8782 0.555974 17.1262 0.499653 17.3732 0.523149H20.5487C20.6425 0.514104 20.7369 0.514104 20.8306 0.523149C21.5726 0.523149 22.0103 0.740649 22.1884 1.16065C22.3664 1.58065 22.3145 2.40565 20.4374 4.61815L19.6955 5.46565C19.336 5.81847 19.0264 6.21976 18.7755 6.65815C19.0565 6.98108 19.3754 7.2682 19.7251 7.51315C20.5778 8.16264 21.3283 8.93895 21.951 9.81565C22.097 9.98613 22.1925 10.1948 22.2266 10.4176C22.2608 10.6405 22.2321 10.8685 22.1439 11.0756C21.9884 11.3051 21.7803 11.4931 21.5375 11.6237C21.2946 11.7542 21.0241 11.8235 20.749 11.8256L17.9371 11.8631L17.7664 11.8331ZM13.8268 8.20315C14.4945 8.20315 15.0732 8.79565 15.689 9.41815C16.0217 9.78534 16.3951 10.1125 16.8019 10.3931C17.1096 10.6 17.4711 10.7096 17.8406 10.7081H17.9148L20.7342 10.6706C20.8732 10.6626 21.0094 10.6269 21.1348 10.5656L21.0606 10.4456C20.499 9.67196 19.8292 8.98479 19.0722 8.40565C18.1893 7.65565 17.7368 7.30315 17.6848 6.72565C17.6329 6.14815 18.0484 5.64565 18.8793 4.69315L19.6213 3.86065C20.2477 3.21479 20.7618 2.46681 21.1422 1.64815C20.9767 1.63823 20.8107 1.63823 20.6451 1.64815H17.4029C17.3443 1.6349 17.2835 1.6349 17.2248 1.64815C16.8814 2.44423 16.4719 3.20947 16.0006 3.93565C14.5984 6.05065 13.938 6.33565 13.4706 6.33565C13.3257 6.33565 13.183 6.29959 13.0551 6.23065C12.3132 5.80315 12.3132 4.85065 12.3577 4.16065C12.3577 4.04815 12.3577 3.93565 12.3577 3.83815C12.3577 3.35065 12.3577 2.93065 12.3948 2.57065C12.4542 1.31065 12.3948 1.30315 12.1129 1.23565C11.6586 1.14491 11.1958 1.10467 10.7329 1.11565H10.221C9.74988 1.10581 9.27872 1.13088 8.81127 1.19065C8.88207 1.24338 8.94459 1.30659 8.99676 1.37815C9.30278 1.8659 9.4554 2.43595 9.4345 3.01315C9.53095 4.25065 9.47901 5.86315 8.69256 6.25315C8.5533 6.31903 8.40115 6.35235 8.2474 6.35065C7.5574 6.35065 6.87482 5.69065 5.70998 3.90565C5.26298 3.22218 4.86383 2.50794 4.51547 1.76815L4.45611 1.69315C4.38118 1.65454 4.30126 1.62677 4.21869 1.61065H1.25095H1.19901C1.63676 2.52565 3.71418 6.57565 6.03643 8.69815C7.34044 9.90918 9.02994 10.6088 10.7997 10.6706H12.1722C12.2422 10.6555 12.3097 10.6303 12.3726 10.5956C12.3726 10.5956 12.3726 10.5956 12.3726 10.5281C12.3726 10.3256 12.3726 8.57815 13.5448 8.27815C13.6356 8.24202 13.7302 8.21685 13.8268 8.20315V8.20315Z" />
  </symbol>
   <symbol id="instagram" viewBox="0 0 18 18" xmlns="http://www.w3.org/2000/svg">
     <g>
      <path
        d="M12.9601 1.80061C13.8188 1.80251 14.6418 2.14448 15.249 2.75169C15.8562 3.35889 16.1982 4.18189 16.2001 5.04061V12.9606C16.1982 13.8193 15.8562 14.6423 15.249 15.2495C14.6418 15.8567 13.8188 16.1987 12.9601 16.2006H5.04009C4.18262 16.1968 3.36147 15.854 2.75581 15.247C2.15016 14.64 1.80919 13.8181 1.80729 12.9606V5.04061C1.80919 4.18314 2.15016 3.36122 2.75581 2.75422C3.36147 2.14722 4.18262 1.80441 5.04009 1.80061H12.9601ZM12.9601 0.720612H5.04009C3.89436 0.720612 2.79555 1.17575 1.98539 1.98591C1.17523 2.79607 0.720093 3.89488 0.720093 5.04061L0.720093 12.9606C0.720093 14.1063 1.17523 15.2052 1.98539 16.0153C2.79555 16.8255 3.89436 17.2806 5.04009 17.2806H12.9601C14.1058 17.2806 15.2046 16.8255 16.0148 16.0153C16.8249 15.2052 17.2801 14.1063 17.2801 12.9606V5.04061C17.2801 3.89488 16.8249 2.79607 16.0148 1.98591C15.2046 1.17575 14.1058 0.720612 12.9601 0.720612V0.720612Z" />
      <path
        d="M9.00703 5.81737C9.63787 5.81737 10.2545 6.00444 10.7791 6.35492C11.3036 6.7054 11.7124 7.20354 11.9538 7.78637C12.1953 8.36919 12.2584 9.01051 12.1353 9.62923C12.0123 10.248 11.7085 10.8163 11.2624 11.2624C10.8163 11.7084 10.248 12.0122 9.62929 12.1353C9.01057 12.2584 8.36924 12.1952 7.78642 11.9538C7.2036 11.7124 6.70545 11.3035 6.35497 10.779C6.00449 10.2545 5.81743 9.63782 5.81743 9.00697C5.81648 8.58784 5.89833 8.17265 6.05829 7.78524C6.21824 7.39784 6.45315 7.04584 6.74952 6.74947C7.04589 6.4531 7.39789 6.21819 7.7853 6.05823C8.17271 5.89828 8.5879 5.81642 9.00703 5.81737V5.81737ZM9.00703 4.73737C8.16228 4.73595 7.33609 4.98514 6.63301 5.45343C5.92993 5.92171 5.38156 6.58803 5.0573 7.36807C4.73304 8.14811 4.64746 9.00681 4.81139 9.83551C4.97532 10.6642 5.38139 11.4256 5.97822 12.0235C6.57504 12.6213 7.3358 13.0287 8.16422 13.194C8.99264 13.3593 9.85148 13.2752 10.6321 12.9523C11.4127 12.6293 12.0799 12.0821 12.5494 11.3798C13.0188 10.6775 13.2694 9.85173 13.2694 9.00697C13.2704 8.44662 13.1608 7.89158 12.947 7.37361C12.7333 6.85564 12.4194 6.38491 12.0236 5.98835C11.6277 5.59178 11.1575 5.27717 10.6398 5.06252C10.1222 4.84786 9.56738 4.73737 9.00703 4.73737Z" />
      <path
        d="M13.4282 5.55936C13.961 5.55936 14.393 5.12741 14.393 4.59456C14.393 4.06172 13.961 3.62976 13.4282 3.62976C12.8953 3.62976 12.4634 4.06172 12.4634 4.59456C12.4634 5.12741 12.8953 5.55936 13.4282 5.55936Z" />
    </g>
  </symbol>
  <symbol id="arrow-right-thick" viewBox="0 0 10 18" xmlns="http://www.w3.org/2000/svg">
    <path d="M10 8.89478L0.25 17.555L0.25 0.234521L10 8.89478Z" />
  </symbol>
  <symbol id="man" viewBox="0 0 14 14" xmlns="http://www.w3.org/2000/svg">
    <path
      d="M4.375 3.92978C4.375 5.45321 5.55275 6.69294 7 6.69294C8.44725 6.69294 9.625 5.45321 9.625 3.92978C9.625 2.40636 8.44725 1.16663 7 1.16663C5.55275 1.16663 4.375 2.40636 4.375 3.92978ZM11.6667 12.8333H12.25V12.2193C12.25 9.8497 10.4177 7.92101 8.16667 7.92101H5.83333C3.58167 7.92101 1.75 9.8497 1.75 12.2193V12.8333H11.6667Z" />
  </symbol>
  <symbol id="point" viewBox="0 0 6 7"
    xmlns="http://www.w3.org/2000/svg">
    <circle cx="3" cy="3.5" r="3" />
  </symbol>
  <symbol id="businessman" viewBox="0 0 28 28" xmlns="http://www.w3.org/2000/svg">
    <path
      d="M23.3758 23.2418V19.8933C23.3758 18.9558 23.2418 18.0182 22.7061 17.0806C22.1703 16.143 21.5006 15.3394 20.5631 14.8036C19.6255 14.1339 17.6164 14 16.6788 14L14.5358 16.277L15.3394 18.0182V22.0364L14 23.5097L12.6606 22.0364V18.0182L13.5982 16.277L11.3212 14C10.2497 14 8.24063 14.1339 7.30306 14.8036C6.36548 15.3394 5.82972 16.143 5.29396 17.0806C4.75821 18.0182 4.62427 18.8218 4.62427 19.8933V23.2418C4.62427 23.2418 8.10669 24.7151 14 24.7151C19.8934 24.7151 23.3758 23.2418 23.3758 23.2418Z" />
    <path
      d="M14 3.41895C11.4551 3.41895 9.98178 5.82985 10.3836 8.50864C10.7854 11.1874 12.1248 13.0626 14 13.0626C15.8751 13.0626 17.2145 11.1874 17.6163 8.50864C18.0181 5.69592 16.5448 3.41895 14 3.41895Z" />
  </symbol>
  <symbol id="map-marker" viewBox="0 0 17 21" xmlns="http://www.w3.org/2000/svg">
    <path
      d="M8.5 0C4.15169 0 0.625 3.52669 0.625 7.875C0.625 12.9334 4.42846 15.1449 5.26923 16.1538C7.28846 18.5769 7.40257 21 8.5 21C9.59743 21 9.71154 18.5769 11.7308 16.1538C12.5715 15.1449 16.375 12.9334 16.375 7.875C16.375 3.52669 12.8483 0 8.5 0ZM8.5 13.125C5.60069 13.125 3.25 10.7743 3.25 7.875C3.25 4.97569 5.60069 2.625 8.5 2.625C11.3993 2.625 13.75 4.97569 13.75 7.875C13.75 10.7743 11.3993 13.125 8.5 13.125ZM8.5 5.25C7.051 5.25 5.875 6.426 5.875 7.875C5.875 9.324 7.051 10.5 8.5 10.5C9.949 10.5 11.125 9.324 11.125 7.875C11.125 6.426 9.949 5.25 8.5 5.25Z" />
  </symbol>
  <symbol id="double-point" viewBox="0 0 41 41" xmlns="http://www.w3.org/2000/svg">
    <circle cx="20.5" cy="20.4998" r="19.7679" fill="white"/>
    <circle cx="20.4999" cy="19.7676" r="8.78572" fill="#182044"/>
  </symbol>
  <symbol id="logo" viewBox="0 0 27 34" xmlns="http://www.w3.org/2000/svg">
    <g clip-path="url(#clip0)">
      <path
        d="M13.6426 0.101368L13.5 0.0859375L0 1.46443V25.5658L13.5 33.3892L27 25.5658V1.46443L13.6426 0.101368ZM25.2344 24.5885L13.5 31.3883L1.76561 24.5885V14.7093L13.4507 21.4834L13.4701 22.711L5.45351 18.0646L5.44295 19.2648L13.4894 23.9747L13.5088 25.2348L5.46408 20.5747L5.45351 21.7749L13.5 26.4847L21.6239 21.7509V20.5507V16.6484L25.2432 14.543L25.2344 24.5885ZM25.2344 13.2622L22.0147 15.1036L20.5325 15.9609L13.4666 11.8597L13.456 13.0599L19.4957 16.5593L19.4429 16.5901L19.3126 16.6638L18.4536 17.1456L13.4666 14.2583L13.456 15.4585L17.3921 17.7389L16.4591 18.3355L16.438 18.3475L13.4666 16.6416L13.456 17.8417L15.4029 18.9528L13.4155 20.1152L1.7973 13.3839L13.4349 6.56862L25.2344 13.2622ZM25.2344 12.062L13.4401 5.28786L1.76561 12.0552V3.01438L13.5 1.8142L25.2344 3.01438V12.062Z" />
    </g>
    <defs>
      <clipPath id="clip0">
        <rect width="27" height="33.3033" transform="translate(0 0.0859375)" />
      </clipPath>
    </defs>
  </symbol>
  <symbol id="level-99" viewBox="0 0 60 60" fill="none" xmlns="http://www.w3.org/2000/svg">
    <circle cx="30" cy="30" r="30" fill="black" fill-opacity="0.6" />
    <path
      d="M22.5503 3.00922C15.7757 4.87906 9.95203 9.22814 6.23551 15.1929C2.51899 21.1577 1.18146 28.302 2.48848 35.2073C3.7955 42.1126 7.65149 48.2739 13.2908 52.4678C18.9302 56.6618 25.9405 58.5817 32.9298 57.8463C39.9191 57.1109 46.3763 53.7741 51.0193 48.4983C55.6623 43.2226 58.1516 36.3937 57.9929 29.3676C57.8341 22.3415 55.039 15.632 50.1625 10.5713C45.2859 5.51057 38.6846 2.46876 31.6692 2.0498"
      stroke="#FF8D30" stroke-width="4" stroke-linecap="round" />
    <path
      d="M22.904 30.312C23.944 30.328 24.656 30.008 25.04 29.352C25.44 28.68 25.688 27.68 25.784 26.352C24.984 26.832 24.12 27.072 23.192 27.072C21.64 27.072 20.344 26.6 19.304 25.656C18.264 24.696 17.744 23.344 17.744 21.6C17.744 19.952 18.24 18.584 19.232 17.496C20.224 16.408 21.64 15.864 23.48 15.864C24.552 15.864 25.472 16.064 26.24 16.464C27.008 16.864 27.6 17.448 28.016 18.216C28.448 18.984 28.752 19.848 28.928 20.808C29.12 21.768 29.216 22.872 29.216 24.12C29.216 27.08 28.712 29.336 27.704 30.888C26.712 32.44 25.208 33.216 23.192 33.216C22.856 33.216 22.488 33.192 22.088 33.144C21.704 33.112 21.248 33.04 20.72 32.928C20.208 32.8 19.768 32.6 19.4 32.328C19.048 32.056 18.848 31.728 18.8 31.344C18.752 30.96 18.864 30.616 19.136 30.312C19.424 30.008 19.808 29.856 20.288 29.856C20.528 29.856 20.92 29.928 21.464 30.072C22.024 30.216 22.504 30.296 22.904 30.312ZM25.856 23.256V22.968C25.856 20.264 25.024 18.912 23.36 18.912C22.56 18.912 21.976 19.168 21.608 19.68C21.256 20.176 21.08 20.808 21.08 21.576C21.08 23.24 21.864 24.072 23.432 24.072C24.456 24.072 25.264 23.8 25.856 23.256ZM35.8649 30.312C36.9049 30.328 37.6169 30.008 38.0009 29.352C38.4009 28.68 38.6489 27.68 38.7449 26.352C37.9449 26.832 37.0809 27.072 36.1529 27.072C34.6009 27.072 33.3049 26.6 32.2649 25.656C31.2249 24.696 30.7049 23.344 30.7049 21.6C30.7049 19.952 31.2009 18.584 32.1929 17.496C33.1849 16.408 34.6009 15.864 36.4409 15.864C37.5129 15.864 38.4329 16.064 39.2009 16.464C39.9689 16.864 40.5609 17.448 40.9769 18.216C41.4089 18.984 41.7129 19.848 41.8889 20.808C42.0809 21.768 42.1769 22.872 42.1769 24.12C42.1769 27.08 41.6729 29.336 40.6649 30.888C39.6729 32.44 38.1689 33.216 36.1529 33.216C35.8169 33.216 35.4489 33.192 35.0489 33.144C34.6649 33.112 34.2089 33.04 33.6809 32.928C33.1689 32.8 32.7289 32.6 32.3609 32.328C32.0089 32.056 31.8089 31.728 31.7609 31.344C31.7129 30.96 31.8249 30.616 32.0969 30.312C32.3849 30.008 32.7689 29.856 33.2489 29.856C33.4889 29.856 33.8809 29.928 34.4249 30.072C34.9849 30.216 35.4649 30.296 35.8649 30.312ZM38.8169 23.256V22.968C38.8169 20.264 37.9849 18.912 36.3209 18.912C35.5209 18.912 34.9369 19.168 34.5689 19.68C34.2169 20.176 34.0409 20.808 34.0409 21.576C34.0409 23.24 34.8249 24.072 36.3929 24.072C37.4169 24.072 38.2249 23.8 38.8169 23.256Z"
      fill="white" />
    <path
      d="M18.036 48.684V40.396C18.036 40.2467 18.0873 40.1207 18.19 40.018C18.302 39.906 18.4327 39.85 18.582 39.85C18.7407 39.85 18.8713 39.906 18.974 40.018C19.0767 40.1207 19.128 40.2467 19.128 40.396V48.684C19.128 48.992 19.1933 49.2113 19.324 49.342C19.3893 49.426 19.422 49.5147 19.422 49.608C19.422 49.748 19.3707 49.8693 19.268 49.972C19.1747 50.0653 19.058 50.112 18.918 50.112C18.33 50.112 18.036 49.636 18.036 48.684ZM23.4335 49.146C23.8349 49.146 24.3202 49.0153 24.8895 48.754C24.9455 48.726 25.0109 48.712 25.0855 48.712C25.2255 48.712 25.3422 48.7633 25.4355 48.866C25.5289 48.9593 25.5755 49.0713 25.5755 49.202C25.5755 49.51 25.3235 49.7387 24.8195 49.888C24.3155 50.0373 23.8115 50.112 23.3075 50.112C22.5329 50.112 21.9215 49.8973 21.4735 49.468C21.0349 49.0293 20.8155 48.4693 20.8155 47.788V45.17C20.8155 44.47 21.0395 43.9007 21.4875 43.462C21.9355 43.0233 22.5655 42.804 23.3775 42.804C24.1335 42.804 24.7075 43.0093 25.0995 43.42C25.5009 43.8213 25.7015 44.3767 25.7015 45.086C25.7015 46.4673 24.9129 47.158 23.3355 47.158C22.8782 47.158 22.4022 47.116 21.9075 47.032V47.858C21.9075 48.2593 22.0382 48.5767 22.2995 48.81C22.5609 49.034 22.9389 49.146 23.4335 49.146ZM24.6235 45.086C24.6235 44.2273 24.1989 43.798 23.3495 43.798C22.9015 43.798 22.5469 43.9147 22.2855 44.148C22.0335 44.372 21.9075 44.68 21.9075 45.072V46.136C22.3929 46.2013 22.8829 46.234 23.3775 46.234C23.8629 46.234 24.1895 46.1313 24.3575 45.926C24.5349 45.7113 24.6235 45.4313 24.6235 45.086ZM31.9255 43.532L30.0215 49.454C29.8722 49.8927 29.6342 50.112 29.3075 50.112C29.1209 50.112 28.9715 50.0653 28.8595 49.972C28.7569 49.8693 28.6682 49.7013 28.5935 49.468L26.6475 43.49C26.5915 43.3313 26.6242 43.1867 26.7455 43.056C26.8669 42.916 27.0115 42.846 27.1795 42.846C27.4222 42.846 27.5855 42.9673 27.6695 43.21L29.3075 48.488L30.9175 43.21C31.0015 42.9673 31.1649 42.846 31.4075 42.846C31.5755 42.846 31.7155 42.916 31.8275 43.056C31.9395 43.196 31.9722 43.3547 31.9255 43.532ZM35.4785 49.146C35.8798 49.146 36.3651 49.0153 36.9345 48.754C36.9905 48.726 37.0558 48.712 37.1305 48.712C37.2705 48.712 37.3871 48.7633 37.4805 48.866C37.5738 48.9593 37.6205 49.0713 37.6205 49.202C37.6205 49.51 37.3685 49.7387 36.8645 49.888C36.3605 50.0373 35.8565 50.112 35.3525 50.112C34.5778 50.112 33.9665 49.8973 33.5185 49.468C33.0798 49.0293 32.8605 48.4693 32.8605 47.788V45.17C32.8605 44.47 33.0845 43.9007 33.5325 43.462C33.9805 43.0233 34.6105 42.804 35.4225 42.804C36.1785 42.804 36.7525 43.0093 37.1445 43.42C37.5458 43.8213 37.7465 44.3767 37.7465 45.086C37.7465 46.4673 36.9578 47.158 35.3805 47.158C34.9231 47.158 34.4471 47.116 33.9525 47.032V47.858C33.9525 48.2593 34.0831 48.5767 34.3445 48.81C34.6058 49.034 34.9838 49.146 35.4785 49.146ZM36.6685 45.086C36.6685 44.2273 36.2438 43.798 35.3945 43.798C34.9465 43.798 34.5918 43.9147 34.3305 44.148C34.0785 44.372 33.9525 44.68 33.9525 45.072V46.136C34.4378 46.2013 34.9278 46.234 35.4225 46.234C35.9078 46.234 36.2345 46.1313 36.4025 45.926C36.5798 45.7113 36.6685 45.4313 36.6685 45.086ZM39.159 48.684V40.396C39.159 40.2467 39.2104 40.1207 39.313 40.018C39.425 39.906 39.5557 39.85 39.705 39.85C39.8637 39.85 39.9944 39.906 40.097 40.018C40.1997 40.1207 40.251 40.2467 40.251 40.396V48.684C40.251 48.992 40.3164 49.2113 40.447 49.342C40.5124 49.426 40.545 49.5147 40.545 49.608C40.545 49.748 40.4937 49.8693 40.391 49.972C40.2977 50.0653 40.181 50.112 40.041 50.112C39.453 50.112 39.159 49.636 39.159 48.684Z"
      fill="white" />
    <line opacity="0.3" x1="15" y1="36.5" x2="45" y2="36.5" stroke="white" />
  </symbol>
  <symbol id="level-88" viewBox="0 0 60 60" fill="none" xmlns="http://www.w3.org/2000/svg">
    <circle cx="30" cy="30" r="30" fill="black" fill-opacity="0.6" />
    <path
      d="M4.74236 17.9148C2.16557 23.3002 1.37757 29.3683 2.4934 35.2332C3.60922 41.0982 6.57045 46.4529 10.9448 50.5159C15.3192 54.5788 20.8777 57.1372 26.8089 57.8176C32.7402 58.498 38.7336 57.2647 43.9144 54.2979C49.0952 51.3311 53.1921 46.786 55.607 41.3261C58.022 35.8662 58.6285 29.7773 57.3382 23.9483C56.0478 18.1193 52.9282 12.8553 48.4345 8.92466C43.9408 4.99408 38.3084 2.6027 32.3595 2.0996"
      stroke="#FF8D30" stroke-width="4" stroke-linecap="round" />
    <path
      d="M29.504 28.032C29.504 29.536 28.936 30.776 27.8 31.752C26.68 32.728 25.24 33.216 23.48 33.216C21.736 33.216 20.288 32.736 19.136 31.776C18 30.816 17.432 29.6 17.432 28.128C17.432 26.448 18.224 25.096 19.808 24.072C18.624 23.176 18.032 22.008 18.032 20.568C18.032 19.144 18.552 18.008 19.592 17.16C20.632 16.312 21.92 15.888 23.456 15.888C24.992 15.888 26.28 16.32 27.32 17.184C28.36 18.032 28.88 19.128 28.88 20.472C28.88 21.848 28.288 22.992 27.104 23.904C28.704 24.96 29.504 26.336 29.504 28.032ZM25.592 20.544C25.592 20.032 25.384 19.608 24.968 19.272C24.568 18.936 24.072 18.768 23.48 18.768C22.872 18.768 22.36 18.936 21.944 19.272C21.544 19.608 21.344 20.032 21.344 20.544C21.344 21.072 21.552 21.52 21.968 21.888C22.384 22.24 22.904 22.48 23.528 22.608C24.136 22.464 24.632 22.208 25.016 21.84C25.4 21.472 25.592 21.04 25.592 20.544ZM26.168 28.032C26.168 27.392 25.904 26.864 25.376 26.448C24.864 26.016 24.208 25.712 23.408 25.536C22.624 25.696 21.984 26 21.488 26.448C21.008 26.88 20.768 27.408 20.768 28.032C20.768 28.672 21.024 29.208 21.536 29.64C22.064 30.072 22.712 30.288 23.48 30.288C24.248 30.288 24.888 30.072 25.4 29.64C25.912 29.192 26.168 28.656 26.168 28.032ZM38.6489 21.192C38.6489 19.448 37.9129 18.576 36.4409 18.576C34.9689 18.576 34.2329 19.448 34.2329 21.192V27.96C34.2329 28.664 34.4249 29.224 34.8089 29.64C35.1929 30.056 35.7369 30.264 36.4409 30.264C37.1449 30.264 37.6889 30.056 38.0729 29.64C38.4569 29.224 38.6489 28.664 38.6489 27.96V21.192ZM32.2889 17.256C33.2169 16.184 34.6009 15.648 36.4409 15.648C38.2809 15.648 39.6649 16.184 40.5929 17.256C41.5209 18.312 41.9849 19.68 41.9849 21.36V27.96C41.9849 29.48 41.4889 30.736 40.4969 31.728C39.5209 32.72 38.1689 33.216 36.4409 33.216C34.7129 33.216 33.3529 32.72 32.3609 31.728C31.3849 30.736 30.8969 29.48 30.8969 27.96V21.36C30.8969 19.68 31.3609 18.312 32.2889 17.256Z"
      fill="white" />
    <path
      d="M18.036 48.684C18.036 49.944 18.568 50.112 18.918 50.112C19.198 50.112 19.422 49.888 19.422 49.608C19.422 49.496 19.366 49.398 19.324 49.342C19.156 49.174 19.128 48.992 19.128 48.684V40.396C19.128 40.088 18.89 39.85 18.582 39.85C18.274 39.85 18.036 40.102 18.036 40.396V48.684ZM23.4335 49.146C22.4255 49.146 21.9075 48.642 21.9075 47.858V47.032C22.3975 47.116 22.9155 47.158 23.3355 47.158C25.0015 47.158 25.7015 46.374 25.7015 45.086C25.7015 43.7 24.9315 42.804 23.3775 42.804C21.7115 42.804 20.8155 43.826 20.8155 45.17V47.788C20.8155 49.104 21.7255 50.112 23.3075 50.112C24.0635 50.112 25.5755 49.888 25.5755 49.202C25.5755 48.95 25.3655 48.712 25.0855 48.712C24.9875 48.712 24.9175 48.74 24.8895 48.754C24.3995 48.978 24.0215 49.146 23.4335 49.146ZM24.6235 45.086C24.6235 45.66 24.4415 46.234 23.3775 46.234C23.0975 46.234 22.4255 46.206 21.9075 46.136V45.072C21.9075 44.288 22.4395 43.798 23.3495 43.798C24.1615 43.798 24.6235 44.176 24.6235 45.086ZM31.9255 43.532C32.0235 43.168 31.7435 42.846 31.4075 42.846C31.1975 42.846 30.9875 43 30.9175 43.21L29.3075 48.488L27.6695 43.21C27.5855 42.972 27.3895 42.846 27.1795 42.846C26.8575 42.846 26.5355 43.154 26.6475 43.49L28.5935 49.468C28.7475 49.916 28.9295 50.112 29.3075 50.112C29.6715 50.112 29.8675 49.916 30.0215 49.454L31.9255 43.532ZM35.4785 49.146C34.4705 49.146 33.9525 48.642 33.9525 47.858V47.032C34.4425 47.116 34.9605 47.158 35.3805 47.158C37.0465 47.158 37.7465 46.374 37.7465 45.086C37.7465 43.7 36.9765 42.804 35.4225 42.804C33.7565 42.804 32.8605 43.826 32.8605 45.17V47.788C32.8605 49.104 33.7705 50.112 35.3525 50.112C36.1085 50.112 37.6205 49.888 37.6205 49.202C37.6205 48.95 37.4105 48.712 37.1305 48.712C37.0325 48.712 36.9625 48.74 36.9345 48.754C36.4445 48.978 36.0665 49.146 35.4785 49.146ZM36.6685 45.086C36.6685 45.66 36.4865 46.234 35.4225 46.234C35.1425 46.234 34.4705 46.206 33.9525 46.136V45.072C33.9525 44.288 34.4845 43.798 35.3945 43.798C36.2065 43.798 36.6685 44.176 36.6685 45.086ZM39.159 48.684C39.159 49.944 39.691 50.112 40.041 50.112C40.321 50.112 40.545 49.888 40.545 49.608C40.545 49.496 40.489 49.398 40.447 49.342C40.279 49.174 40.251 48.992 40.251 48.684V40.396C40.251 40.088 40.013 39.85 39.705 39.85C39.397 39.85 39.159 40.102 39.159 40.396V48.684Z"
      fill="white" />
    <line opacity="0.3" x1="15" y1="36.5" x2="45" y2="36.5" stroke="white" />
  </symbol>
  <symbol id="horizontal-line" viewBox="0 0 358 8" xmlns="http://www.w3.org/2000/svg">
    <rect width="358" height="8" rx="4" />
  </symbol>
  <symbol id="level-80-large" xmlns="http://www.w3.org/2000/svg">
    <path fill-rule="evenodd" clip-rule="evenodd"
      d="M5.76698 26.6667C2.08488 33.6324 0 41.5727 0 50C0 77.6142 22.3858 100 50 100C77.6142 100 100 77.6142 100 50C100 22.3858 77.6142 0 50 0V3C75.9574 3 97 24.0426 97 50C97 75.9574 75.9574 97 50 97C24.0426 97 3 75.9574 3 50C3 41.508 5.25217 33.5419 9.19181 26.6667H5.76698Z"
      fill="#FF8D30" />
    <path
      d="M48.8086 40.134C48.8086 42.5153 47.9092 44.4787 46.1106 46.024C44.3372 47.5693 42.0572 48.342 39.2706 48.342C36.5092 48.342 34.2166 47.582 32.3926 46.062C30.5939 44.542 29.6946 42.6167 29.6946 40.286C29.6946 37.626 30.9486 35.4853 33.4566 33.864C31.5819 32.4453 30.6446 30.596 30.6446 28.316C30.6446 26.0613 31.4679 24.2627 33.1146 22.92C34.7612 21.5773 36.8006 20.906 39.2326 20.906C41.6646 20.906 43.7039 21.59 45.3506 22.958C46.9972 24.3007 47.8206 26.036 47.8206 28.164C47.8206 30.3427 46.8832 32.154 45.0086 33.598C47.5419 35.27 48.8086 37.4487 48.8086 40.134ZM42.6146 28.278C42.6146 27.4673 42.2852 26.796 41.6266 26.264C40.9932 25.732 40.2079 25.466 39.2706 25.466C38.3079 25.466 37.4972 25.732 36.8386 26.264C36.2052 26.796 35.8886 27.4673 35.8886 28.278C35.8886 29.114 36.2179 29.8233 36.8766 30.406C37.5352 30.9633 38.3586 31.3433 39.3466 31.546C40.3092 31.318 41.0946 30.9127 41.7026 30.33C42.3106 29.7473 42.6146 29.0633 42.6146 28.278ZM43.5266 40.134C43.5266 39.1207 43.1086 38.2847 42.2726 37.626C41.4619 36.942 40.4232 36.4607 39.1566 36.182C37.9152 36.4353 36.9019 36.9167 36.1166 37.626C35.3566 38.31 34.9766 39.146 34.9766 40.134C34.9766 41.1473 35.3819 41.996 36.1926 42.68C37.0286 43.364 38.0546 43.706 39.2706 43.706C40.4866 43.706 41.4999 43.364 42.3106 42.68C43.1212 41.9707 43.5266 41.122 43.5266 40.134ZM63.288 29.304C63.288 26.5427 62.1227 25.162 59.792 25.162C57.4614 25.162 56.296 26.5427 56.296 29.304V40.02C56.296 41.1347 56.6 42.0213 57.208 42.68C57.816 43.3387 58.6774 43.668 59.792 43.668C60.9067 43.668 61.768 43.3387 62.376 42.68C62.984 42.0213 63.288 41.1347 63.288 40.02V29.304ZM53.218 23.072C54.6874 21.3747 56.8787 20.526 59.792 20.526C62.7054 20.526 64.8967 21.3747 66.366 23.072C67.8354 24.744 68.57 26.91 68.57 29.57V40.02C68.57 42.4267 67.7847 44.4153 66.214 45.986C64.6687 47.5567 62.528 48.342 59.792 48.342C57.056 48.342 54.9027 47.5567 53.332 45.986C51.7867 44.4153 51.014 42.4267 51.014 40.02V29.57C51.014 26.91 51.7487 24.744 53.218 23.072Z"
      fill="var(--color-1)"/>
    <line opacity="0.3" x1="24.0001" y1="56.7979" x2="75.0639" y2="56.7979" stroke="var(--color-3)"/>
    <path
      d="M35.769 75.9888V65.3328C35.769 65.1408 35.835 64.9788 35.967 64.8468C36.111 64.7028 36.279 64.6308 36.471 64.6308C36.675 64.6308 36.843 64.7028 36.975 64.8468C37.107 64.9788 37.173 65.1408 37.173 65.3328V75.9888C37.173 76.3848 37.257 76.6668 37.425 76.8348C37.509 76.9428 37.551 77.0568 37.551 77.1768C37.551 77.3568 37.485 77.5128 37.353 77.6448C37.233 77.7648 37.083 77.8248 36.903 77.8248C36.147 77.8248 35.769 77.2128 35.769 75.9888ZM42.7087 76.5828C43.2247 76.5828 43.8487 76.4148 44.5807 76.0788C44.6527 76.0428 44.7367 76.0248 44.8327 76.0248C45.0127 76.0248 45.1627 76.0908 45.2827 76.2228C45.4027 76.3428 45.4627 76.4868 45.4627 76.6548C45.4627 77.0508 45.1387 77.3448 44.4907 77.5368C43.8427 77.7288 43.1947 77.8248 42.5467 77.8248C41.5507 77.8248 40.7647 77.5488 40.1887 76.9968C39.6247 76.4328 39.3427 75.7128 39.3427 74.8368V71.4708C39.3427 70.5708 39.6307 69.8388 40.2067 69.2748C40.7827 68.7108 41.5927 68.4288 42.6367 68.4288C43.6087 68.4288 44.3467 68.6928 44.8507 69.2208C45.3667 69.7368 45.6247 70.4508 45.6247 71.3628C45.6247 73.1388 44.6107 74.0268 42.5827 74.0268C41.9947 74.0268 41.3827 73.9728 40.7467 73.8648V74.9268C40.7467 75.4428 40.9147 75.8508 41.2507 76.1508C41.5867 76.4388 42.0727 76.5828 42.7087 76.5828ZM44.2387 71.3628C44.2387 70.2588 43.6927 69.7068 42.6007 69.7068C42.0247 69.7068 41.5687 69.8568 41.2327 70.1568C40.9087 70.4448 40.7467 70.8408 40.7467 71.3448V72.7128C41.3707 72.7968 42.0007 72.8388 42.6367 72.8388C43.2607 72.8388 43.6807 72.7068 43.8967 72.4428C44.1247 72.1668 44.2387 71.8068 44.2387 71.3628ZM53.627 69.3648L51.179 76.9788C50.987 77.5428 50.681 77.8248 50.261 77.8248C50.021 77.8248 49.829 77.7648 49.685 77.6448C49.553 77.5128 49.439 77.2968 49.343 76.9968L46.841 69.3108C46.769 69.1068 46.811 68.9208 46.967 68.7528C47.123 68.5728 47.309 68.4828 47.525 68.4828C47.837 68.4828 48.047 68.6388 48.155 68.9508L50.261 75.7368L52.331 68.9508C52.439 68.6388 52.649 68.4828 52.961 68.4828C53.177 68.4828 53.357 68.5728 53.501 68.7528C53.645 68.9328 53.687 69.1368 53.627 69.3648ZM58.195 76.5828C58.711 76.5828 59.335 76.4148 60.067 76.0788C60.139 76.0428 60.223 76.0248 60.319 76.0248C60.499 76.0248 60.649 76.0908 60.769 76.2228C60.889 76.3428 60.949 76.4868 60.949 76.6548C60.949 77.0508 60.625 77.3448 59.977 77.5368C59.329 77.7288 58.681 77.8248 58.033 77.8248C57.037 77.8248 56.251 77.5488 55.675 76.9968C55.111 76.4328 54.829 75.7128 54.829 74.8368V71.4708C54.829 70.5708 55.117 69.8388 55.693 69.2748C56.269 68.7108 57.079 68.4288 58.123 68.4288C59.095 68.4288 59.833 68.6928 60.337 69.2208C60.853 69.7368 61.111 70.4508 61.111 71.3628C61.111 73.1388 60.097 74.0268 58.069 74.0268C57.481 74.0268 56.869 73.9728 56.233 73.8648V74.9268C56.233 75.4428 56.401 75.8508 56.737 76.1508C57.073 76.4388 57.559 76.5828 58.195 76.5828ZM59.725 71.3628C59.725 70.2588 59.179 69.7068 58.087 69.7068C57.511 69.7068 57.055 69.8568 56.719 70.1568C56.395 70.4448 56.233 70.8408 56.233 71.3448V72.7128C56.857 72.7968 57.487 72.8388 58.123 72.8388C58.747 72.8388 59.167 72.7068 59.383 72.4428C59.611 72.1668 59.725 71.8068 59.725 71.3628ZM62.9272 75.9888V65.3328C62.9272 65.1408 62.9932 64.9788 63.1252 64.8468C63.2692 64.7028 63.4372 64.6308 63.6292 64.6308C63.8332 64.6308 64.0012 64.7028 64.1332 64.8468C64.2652 64.9788 64.3312 65.1408 64.3312 65.3328V75.9888C64.3312 76.3848 64.4152 76.6668 64.5832 76.8348C64.6672 76.9428 64.7092 77.0568 64.7092 77.1768C64.7092 77.3568 64.6432 77.5128 64.5112 77.6448C64.3912 77.7648 64.2412 77.8248 64.0612 77.8248C63.3052 77.8248 62.9272 77.2128 62.9272 75.9888Z"
      fill="var(--color-2)" />
  </symbol>
  <symbol id="three-dots" viewBox="0 0 47 5" xmlns="http://www.w3.org/2000/svg">
    <circle cx="2.5" cy="2.5" r="2.5" transform="rotate(-90 2.5 2.5)" fill="#1D2E5B" />
    <circle opacity="0.3" cx="23.5" cy="2.5" r="2.5" transform="rotate(-90 23.5 2.5)" fill="#1D2E5B" />
    <circle opacity="0.3" cx="44.5" cy="2.5" r="2.5" transform="rotate(-90 44.5 2.5)" fill="#1D2E5B" />
  </symbol>
  <symbol id="arrow-left-thin" viewBox="0 0 15 21" xmlns="http://www.w3.org/2000/svg">
    <g>
      <path
        d="M11.8116 1.40061C11.713 1.28894 11.5958 1.20035 11.4668 1.1399C11.3378 1.07945 11.1994 1.04834 11.0598 1.04834C10.9201 1.04834 10.7818 1.07945 10.6528 1.1399C10.5238 1.20035 10.4066 1.28894 10.3079 1.40061L3.24844 9.37194C3.16968 9.46069 3.1072 9.5661 3.06457 9.68214C3.02194 9.79818 3 9.92258 3 10.0482C3 10.1738 3.02194 10.2982 3.06457 10.4143C3.1072 10.5303 3.16968 10.6357 3.24844 10.7245L10.3079 18.6958C10.7242 19.1658 11.3953 19.1658 11.8116 18.6958C12.2279 18.2258 11.883 17.7322 11.4668 17.2622L7.74854 13.0836L5.12914 10.0172L11.8207 2.30298C11.8207 2.30298 12.2279 1.86105 11.8116 1.40061Z" />
    </g>
  </symbol>
  <symbol id="arrow-right-thin" viewBox="0 0 14 21" xmlns="http://www.w3.org/2000/svg">
    <g>
      <path
        d="M3.06949 19.3693C3.16815 19.481 3.28536 19.5695 3.41439 19.63C3.54343 19.6904 3.68176 19.7216 3.82146 19.7216C3.96117 19.7216 4.0995 19.6904 4.22853 19.63C4.35757 19.5695 4.47477 19.481 4.57344 19.3693L11.6343 11.398C11.7131 11.3092 11.7756 11.2038 11.8182 11.0878C11.8609 10.9717 11.8828 10.8473 11.8828 10.7217C11.8828 10.5961 11.8609 10.4717 11.8182 10.3556C11.7756 10.2396 11.7131 10.1342 11.6343 10.0454L4.57344 2.07408C4.15709 1.60405 3.48584 1.60405 3.06949 2.07408C2.65314 2.54411 3.32374 3.3591 3.74009 3.82913L9.82453 10.7217L3.41439 17.972C3.00654 18.4324 2.65314 18.9089 3.06949 19.3693Z" />
    </g>
  </symbol>
  <symbol id="arrow-down-thin" viewBox="0 0 12 16" xmlns="http://www.w3.org/2000/svg">
    <g>
      <path
        d="M0.638485 5.09805C0.569006 5.17667 0.513881 5.27007 0.476269 5.37289C0.438657 5.47571 0.419296 5.58595 0.419296 5.69727C0.419296 5.8086 0.438657 5.91883 0.476269 6.02165C0.513881 6.12448 0.569006 6.21787 0.638485 6.29649L5.59843 11.9231C5.65365 11.9859 5.71924 12.0357 5.79144 12.0696C5.86364 12.1036 5.94105 12.1211 6.01922 12.1211C6.09739 12.1211 6.17479 12.1036 6.247 12.0696C6.3192 12.0357 6.38479 11.9859 6.44001 11.9231L11.4 6.29649C11.6924 5.96472 11.6924 5.42982 11.4 5.09805C11.1075 4.76628 10.8004 5.04112 10.5079 5.37289L7.90792 8.3364L5.99995 10.4241L1.19996 5.09079C1.19996 5.09079 0.92498 4.76628 0.638485 5.09805Z" />
    </g>
  </symbol>
  <symbol id="close-circle" viewBox="0 0 21 21" xmlns="http://www.w3.org/2000/svg">
    <circle cx="10.5" cy="10.5" r="10.5" fill="var(--circle-fill)" />
    <path d="M13.875 7.125L7.125 13.875" stroke="#AFB0B5" stroke-linecap="round"
      stroke-linejoin="round" />
    <path d="M7.125 7.125L13.875 13.875" stroke="#AFB0B5" stroke-linecap="round"
      stroke-linejoin="round" />
  </symbol>
  <symbol id="arrow-down-connect" viewBox="0 0 8 11" xmlns="http://www.w3.org/2000/svg">
    <path
      d="M3.64645 10.3536C3.84171 10.5488 4.15829 10.5488 4.35355 10.3536L7.53553 7.17157C7.7308 6.97631 7.7308 6.65973 7.53553 6.46447C7.34027 6.2692 7.02369 6.2692 6.82843 6.46447L4 9.29289L1.17157 6.46447C0.976311 6.2692 0.659728 6.2692 0.464466 6.46447C0.269204 6.65973 0.269204 6.97631 0.464466 7.17157L3.64645 10.3536ZM3.5 0L3.5 10H4.5L4.5 0L3.5 0Z" />
  </symbol>
  <symbol id="arrow-left-thick" viewBox="0 0 10 18" xmlns="http://www.w3.org/2000/svg">
    <path d="M0 9L9.75 0.339745L9.75 17.6603L0 9Z" />
  </symbol>
  <symbol id="line-connect-small" viewBox="0 0 17 287" xmlns="http://www.w3.org/2000/svg">
    <circle cx="14" cy="3" r="3" />
    <circle cx="14" cy="284" r="3" />
    <rect x="2" y="2" width="11" height="2" />
    <rect y="283" width="12" height="2" />
    <rect y="285" width="283" height="2" transform="rotate(-90 0 285)" />
  </symbol>
  <symbol id="line-connect-medium" viewBox="0 0 14 274" xmlns="http://www.w3.org/2000/svg">
    <circle cx="7" cy="7" r="7" />
    <circle cx="7" cy="267" r="7" />
    <line x1="7" y1="13" x2="7" y2="261" />
  </symbol>
  <symbol id="filter" viewBox="0 0 16 10" xmlns="http://www.w3.org/2000/svg">
    <rect x="7.17395" width="7.82609" height="2" />
    <rect x="7.17383" y="8" width="7.82609" height="2" />
    <rect y="4" width="7.82609" height="2" />
    <rect x="3.91309" width="1.95652" height="2" />
    <rect x="3.91309" y="8" width="1.95652" height="2" />
    <rect x="9.13037" y="4" width="1.95652" height="2" />
    <rect width="2.6087" height="2" />
    <rect y="8" width="2.6087" height="2" />
    <rect x="12.3914" y="4" width="2.6087" height="2" />
  </symbol>
  <symbol id="arrow-top-thick" viewBox="0 0 10 5" xmlns="http://www.w3.org/2000/svg">
    <path d="M5 0L9.33013 4.5H0.669873L5 0Z" />
  </symbol>
  <symbol id="arrow-bottom-thick" viewBox="0 0 10 5" xmlns="http://www.w3.org/2000/svg">
    <path d="M5 5L0.669872 0.5L9.33013 0.5L5 5Z" />
  </symbol>
  <symbol id="like" viewBox="0 0 13 11" xmlns="http://www.w3.org/2000/svg">
    <path
      d="M3.25536 0.47406C4.94813 0.47406 6.31919 1.82156 6.31919 3.48385C6.31919 1.82156 7.69025 0.47406 9.38302 0.47406C11.0758 0.47406 12.4469 1.82156 12.4469 3.48385C12.4469 5.98919 9.96974 6.87293 6.61945 10.8609C6.58256 10.9047 6.53658 10.9399 6.48472 10.9641C6.43286 10.9882 6.37637 11.0007 6.31919 11.0007C6.26201 11.0007 6.20552 10.9882 6.15366 10.9641C6.1018 10.9399 6.05582 10.9047 6.01893 10.8609C2.66864 6.87293 0.191528 5.98919 0.191528 3.48385C0.191528 1.82156 1.56259 0.47406 3.25536 0.47406Z" />
  </symbol>
  <symbol id="level-99-without-text" viewBox="0 0 46 45" fill="none" xmlns="http://www.w3.org/2000/svg">
    <path d="M23.5454 1.52201C28.9393 1.76918 34.0308 4.08455 37.7624 7.98727C41.494 11.89 43.5789 17.0801 43.5841 22.4797C43.5893 27.8793 41.5144 33.0735 37.7904 36.9834C34.0664 40.8933 28.9794 43.2185 23.5859 43.4761C18.1924 43.7337 12.907 41.9038 8.82727 38.3666C4.74757 34.8294 2.18715 29.8566 1.67776 24.4811C1.16837 19.1056 2.74917 13.7404 6.09185 9.49979C9.43452 5.25923 14.2822 2.46918 19.628 1.7091" stroke="#FF8D30" stroke-width="3" stroke-linecap="round"/>
    <path d="M14.9884 28.312C16.0284 28.328 16.7404 28.008 17.1244 27.352C17.5244 26.68 17.7724 25.68 17.8684 24.352C17.0684 24.832 16.2044 25.072 15.2764 25.072C13.7244 25.072 12.4284 24.6 11.3884 23.656C10.3484 22.696 9.82835 21.344 9.82835 19.6C9.82835 17.952 10.3244 16.584 11.3164 15.496C12.3084 14.408 13.7244 13.864 15.5644 13.864C16.6364 13.864 17.5564 14.064 18.3244 14.464C19.0924 14.864 19.6844 15.448 20.1004 16.216C20.5324 16.984 20.8364 17.848 21.0124 18.808C21.2044 19.768 21.3004 20.872 21.3004 22.12C21.3004 25.08 20.7964 27.336 19.7884 28.888C18.7964 30.44 17.2924 31.216 15.2764 31.216C14.9404 31.216 14.5724 31.192 14.1724 31.144C13.7884 31.112 13.3324 31.04 12.8044 30.928C12.2924 30.8 11.8524 30.6 11.4844 30.328C11.1324 30.056 10.9324 29.728 10.8844 29.344C10.8364 28.96 10.9484 28.616 11.2204 28.312C11.5084 28.008 11.8924 27.856 12.3724 27.856C12.6124 27.856 13.0044 27.928 13.5484 28.072C14.1084 28.216 14.5884 28.296 14.9884 28.312ZM17.9404 21.256V20.968C17.9404 18.264 17.1084 16.912 15.4444 16.912C14.6444 16.912 14.0604 17.168 13.6924 17.68C13.3404 18.176 13.1644 18.808 13.1644 19.576C13.1644 21.24 13.9484 22.072 15.5164 22.072C16.5404 22.072 17.3484 21.8 17.9404 21.256ZM27.9493 28.312C28.9893 28.328 29.7013 28.008 30.0853 27.352C30.4853 26.68 30.7333 25.68 30.8293 24.352C30.0293 24.832 29.1653 25.072 28.2373 25.072C26.6853 25.072 25.3893 24.6 24.3493 23.656C23.3093 22.696 22.7893 21.344 22.7893 19.6C22.7893 17.952 23.2853 16.584 24.2773 15.496C25.2693 14.408 26.6853 13.864 28.5253 13.864C29.5973 13.864 30.5173 14.064 31.2853 14.464C32.0533 14.864 32.6453 15.448 33.0613 16.216C33.4933 16.984 33.7973 17.848 33.9733 18.808C34.1653 19.768 34.2613 20.872 34.2613 22.12C34.2613 25.08 33.7573 27.336 32.7493 28.888C31.7573 30.44 30.2533 31.216 28.2373 31.216C27.9013 31.216 27.5333 31.192 27.1333 31.144C26.7493 31.112 26.2933 31.04 25.7653 30.928C25.2533 30.8 24.8133 30.6 24.4453 30.328C24.0933 30.056 23.8933 29.728 23.8453 29.344C23.7973 28.96 23.9093 28.616 24.1813 28.312C24.4693 28.008 24.8533 27.856 25.3333 27.856C25.5733 27.856 25.9653 27.928 26.5093 28.072C27.0693 28.216 27.5493 28.296 27.9493 28.312ZM30.9013 21.256V20.968C30.9013 18.264 30.0693 16.912 28.4053 16.912C27.6053 16.912 27.0213 17.168 26.6533 17.68C26.3013 18.176 26.1253 18.808 26.1253 19.576C26.1253 21.24 26.9093 22.072 28.4773 22.072C29.5013 22.072 30.3093 21.8 30.9013 21.256Z" fill="#1D2E5B"/>
  </symbol>
  <symbol id="level-80-without-text" viewBox="0 0 46 45" fill="none" xmlns="http://www.w3.org/2000/svg">
    <path d="M23.5145 1.50818C27.9499 1.63199 32.2321 3.15753 35.7467 5.86592C39.2614 8.57431 41.8278 12.3264 43.0779 16.5838C44.3279 20.8412 44.1973 25.3851 42.7048 29.5637C41.2123 33.7423 38.4346 37.3407 34.7702 39.8428C31.1059 42.3449 26.7431 43.6219 22.3079 43.4908C17.8727 43.3597 13.593 41.8271 10.0829 39.113C6.57268 36.3988 4.01241 32.6425 2.76936 28.3831C1.52632 24.1236 1.66439 19.5799 3.16376 15.4038" stroke="#FF8D30" stroke-width="3" stroke-linecap="round"/>
    <path d="M22.9325 25.7971C22.9325 27.3011 22.3645 28.5411 21.2285 29.5171C20.1085 30.4931 18.6685 30.9811 16.9085 30.9811C15.1645 30.9811 13.7165 30.5011 12.5645 29.5411C11.4285 28.5811 10.8605 27.3651 10.8605 25.8931C10.8605 24.2131 11.6525 22.8611 13.2365 21.8371C12.0525 20.9411 11.4605 19.7731 11.4605 18.3331C11.4605 16.9091 11.9805 15.7731 13.0205 14.9251C14.0605 14.0771 15.3485 13.6531 16.8845 13.6531C18.4205 13.6531 19.7085 14.0851 20.7485 14.9491C21.7885 15.7971 22.3085 16.8931 22.3085 18.2371C22.3085 19.6131 21.7165 20.7571 20.5325 21.6691C22.1325 22.7251 22.9325 24.1011 22.9325 25.7971ZM19.0205 18.3091C19.0205 17.7971 18.8125 17.3731 18.3965 17.0371C17.9965 16.7011 17.5005 16.5331 16.9085 16.5331C16.3005 16.5331 15.7885 16.7011 15.3725 17.0371C14.9725 17.3731 14.7725 17.7971 14.7725 18.3091C14.7725 18.8371 14.9805 19.2851 15.3965 19.6531C15.8125 20.0051 16.3325 20.2451 16.9565 20.3731C17.5645 20.2291 18.0605 19.9731 18.4445 19.6051C18.8285 19.2371 19.0205 18.8051 19.0205 18.3091ZM19.5965 25.7971C19.5965 25.1571 19.3325 24.6291 18.8045 24.2131C18.2925 23.7811 17.6365 23.4771 16.8365 23.3011C16.0525 23.4611 15.4125 23.7651 14.9165 24.2131C14.4365 24.6451 14.1965 25.1731 14.1965 25.7971C14.1965 26.4371 14.4525 26.9731 14.9645 27.4051C15.4925 27.8371 16.1405 28.0531 16.9085 28.0531C17.6765 28.0531 18.3165 27.8371 18.8285 27.4051C19.3405 26.9571 19.5965 26.4211 19.5965 25.7971ZM32.0774 18.9571C32.0774 17.2131 31.3414 16.3411 29.8694 16.3411C28.3974 16.3411 27.6614 17.2131 27.6614 18.9571V25.7251C27.6614 26.4291 27.8534 26.9891 28.2374 27.4051C28.6214 27.8211 29.1654 28.0291 29.8694 28.0291C30.5734 28.0291 31.1174 27.8211 31.5014 27.4051C31.8854 26.9891 32.0774 26.4291 32.0774 25.7251V18.9571ZM25.7174 15.0211C26.6454 13.9491 28.0294 13.4131 29.8694 13.4131C31.7094 13.4131 33.0934 13.9491 34.0214 15.0211C34.9494 16.0771 35.4134 17.4451 35.4134 19.1251V25.7251C35.4134 27.2451 34.9174 28.5011 33.9254 29.4931C32.9494 30.4851 31.5974 30.9811 29.8694 30.9811C28.1414 30.9811 26.7814 30.4851 25.7894 29.4931C24.8134 28.5011 24.3254 27.2451 24.3254 25.7251V19.1251C24.3254 17.4451 24.7894 16.0771 25.7174 15.0211Z" fill="#1D2E5B"/>
  </symbol>
  <symbol id="level-25-without-text" viewBox="0 0 46 45" fill="none" xmlns="http://www.w3.org/2000/svg">
    <path d="M22.5841 1.5C25.3419 1.5 28.0726 2.04318 30.6205 3.09853C33.1683 4.15388 35.4833 5.70073 37.4333 7.65076C39.3834 9.60079 40.9302 11.9158 41.9856 14.4636C43.0409 17.0115 43.5841 19.7422 43.5841 22.5" stroke="#FF8D30" stroke-width="3" stroke-linecap="round"/>
    <path d="M21.1804 29.488C21.1804 28.648 20.4604 28 19.5244 28H14.1724C15.4684 26.224 17.5804 24.736 19.1884 23.056C20.2924 21.904 21.0844 20.56 21.0844 18.52C21.0844 15.808 19.0444 13.648 15.5404 13.648C13.5964 13.648 10.1644 14.392 10.1644 16.144C10.1644 17.032 10.9804 17.608 11.7964 17.608C12.4924 17.608 12.9724 17.176 13.5004 16.96C14.0764 16.72 14.7004 16.576 15.5164 16.576C17.0044 16.576 17.7724 17.536 17.7724 18.76C17.7724 20.536 15.8524 21.904 14.5324 23.104C12.8284 24.64 11.0764 26.176 10.1164 28.288C9.94835 28.648 9.92435 29.08 9.92435 29.416C9.92435 30.304 10.6204 31 11.6284 31H19.5244C20.4604 31 21.1804 30.328 21.1804 29.488ZM33.9973 25.36C33.9973 21.976 31.6933 19.96 28.4053 19.96C27.8773 19.96 27.3253 20.008 26.8453 20.152L26.9893 17.032H31.4773C32.3413 17.032 33.3013 16.648 33.3013 15.568C33.3013 14.464 32.3413 14.056 31.4773 14.056H25.6933C24.8053 14.056 23.8933 14.656 23.8693 15.664L23.6293 22.288C23.6053 23.248 24.3493 23.92 25.3093 23.92C26.0773 23.92 27.0373 23.176 27.0373 23.176C27.4453 22.96 27.8293 22.864 28.3573 22.864C29.6533 22.864 30.6613 23.68 30.6613 25.456C30.6613 26.872 30.0133 28.288 27.8773 28.288C26.2693 28.288 25.5973 27.4 24.6613 27.4C23.7493 27.4 23.0533 28.096 23.0533 28.888C23.0533 30.88 27.3013 31.192 28.4293 31.192C32.3653 31.192 33.9973 28.144 33.9973 25.36Z" fill="#1D2E5B"/>
  </symbol>
  <symbol id="level-50-without-text" viewBox="0 0 46 47" fill="none" xmlns="http://www.w3.org/2000/svg">
    <path d="M21.9282 1.60522C27.6304 1.60522 33.099 3.8704 37.131 7.90243C41.163 11.9345 43.4282 17.4031 43.4282 23.1052C43.4282 28.8074 41.1631 34.276 37.131 38.308C33.099 42.34 27.6304 44.6052 21.9282 44.6052" stroke="#FF8D30" stroke-width="3" stroke-linecap="round"/>
    <path d="M22.3805 26.9652C22.3805 28.5332 21.9085 29.9012 20.9645 31.0692C20.0205 32.2212 18.6365 32.7972 16.8125 32.7972C16.4285 32.7972 15.9805 32.7652 15.4685 32.7012C14.9565 32.6532 14.3725 32.5572 13.7165 32.4132C13.0765 32.2532 12.5325 32.0132 12.0845 31.6932C11.6525 31.3572 11.4365 30.9572 11.4365 30.4932C11.4365 30.0932 11.5885 29.7492 11.8925 29.4612C12.2125 29.1572 12.5965 29.0052 13.0445 29.0052C13.3005 29.0052 13.7485 29.1572 14.3885 29.4612C15.0445 29.7492 15.6685 29.8932 16.2605 29.8932C17.2525 29.8932 17.9645 29.6292 18.3965 29.1012C18.8285 28.5572 19.0445 27.8772 19.0445 27.0612C19.0445 26.2132 18.8285 25.5732 18.3965 25.1412C17.9805 24.6932 17.4285 24.4692 16.7405 24.4692C16.2605 24.4692 15.8205 24.5732 15.4205 24.7812C14.7805 25.2772 14.2045 25.5252 13.6925 25.5252C13.2125 25.5252 12.8045 25.3732 12.4685 25.0692C12.1485 24.7652 11.9965 24.3732 12.0125 23.8932L12.2525 17.2692C12.2685 16.7892 12.4525 16.4052 12.8045 16.1172C13.1725 15.8132 13.5965 15.6612 14.0765 15.6612H19.8605C20.3565 15.6612 20.7805 15.7892 21.1325 16.0452C21.5005 16.2852 21.6845 16.6612 21.6845 17.1732C21.6845 17.6692 21.5005 18.0372 21.1325 18.2772C20.7805 18.5172 20.3565 18.6372 19.8605 18.6372H15.3725L15.2285 21.7572C15.6605 21.6292 16.1805 21.5652 16.7885 21.5652C18.4525 21.5652 19.7965 22.0532 20.8205 23.0292C21.8605 23.9892 22.3805 25.3012 22.3805 26.9652ZM32.0774 20.7972C32.0774 19.0532 31.3414 18.1812 29.8694 18.1812C28.3974 18.1812 27.6614 19.0532 27.6614 20.7972V27.5652C27.6614 28.2692 27.8534 28.8292 28.2374 29.2452C28.6214 29.6612 29.1654 29.8692 29.8694 29.8692C30.5734 29.8692 31.1174 29.6612 31.5014 29.2452C31.8854 28.8292 32.0774 28.2692 32.0774 27.5652V20.7972ZM25.7174 16.8612C26.6454 15.7892 28.0294 15.2532 29.8694 15.2532C31.7094 15.2532 33.0934 15.7892 34.0214 16.8612C34.9494 17.9172 35.4134 19.2852 35.4134 20.9652V27.5652C35.4134 29.0852 34.9174 30.3412 33.9254 31.3332C32.9494 32.3252 31.5974 32.8212 29.8694 32.8212C28.1414 32.8212 26.7814 32.3252 25.7894 31.3332C24.8134 30.3412 24.3254 29.0852 24.3254 27.5652V20.9652C24.3254 19.2852 24.7894 17.9172 25.7174 16.8612Z" fill="#1D2E5B"/>
  </symbol>
  <symbol id="level-99-thin" viewBox="0 0 64 64" fill="none" xmlns="http://www.w3.org/2000/svg">
    <path d="M27.436 2.3492C19.7903 3.52607 12.8947 7.61087 8.18897 13.7508C3.48324 19.8906 1.33115 27.611 2.18203 35.2998C3.03291 42.9886 6.82098 50.0516 12.7553 55.014C18.6897 59.9764 26.3116 62.4546 34.0296 61.9313C41.7477 61.4079 48.9652 57.9234 54.1753 52.2053C59.3854 46.4872 62.1854 38.9775 61.9905 31.2442C61.7956 23.5109 58.621 16.1518 53.1295 10.7034C47.6379 5.25497 40.254 2.13844 32.5194 2.0045" stroke="#FF8D30" stroke-width="3" stroke-linecap="round"/>
    <path d="M25.9042 31.312C26.9442 31.328 27.6562 31.008 28.0402 30.352C28.4402 29.68 28.6882 28.68 28.7842 27.352C27.9842 27.832 27.1202 28.072 26.1922 28.072C24.6402 28.072 23.3442 27.6 22.3042 26.656C21.2642 25.696 20.7442 24.344 20.7442 22.6C20.7442 20.952 21.2402 19.584 22.2322 18.496C23.2242 17.408 24.6402 16.864 26.4802 16.864C27.5522 16.864 28.4722 17.064 29.2402 17.464C30.0082 17.864 30.6002 18.448 31.0162 19.216C31.4482 19.984 31.7522 20.848 31.9282 21.808C32.1202 22.768 32.2162 23.872 32.2162 25.12C32.2162 28.08 31.7122 30.336 30.7042 31.888C29.7122 33.44 28.2082 34.216 26.1922 34.216C25.8562 34.216 25.4882 34.192 25.0882 34.144C24.7042 34.112 24.2482 34.04 23.7202 33.928C23.2082 33.8 22.7682 33.6 22.4002 33.328C22.0482 33.056 21.8482 32.728 21.8002 32.344C21.7522 31.96 21.8642 31.616 22.1362 31.312C22.4242 31.008 22.8082 30.856 23.2882 30.856C23.5282 30.856 23.9202 30.928 24.4642 31.072C25.0242 31.216 25.5042 31.296 25.9042 31.312ZM28.8562 24.256V23.968C28.8562 21.264 28.0242 19.912 26.3602 19.912C25.5602 19.912 24.9762 20.168 24.6082 20.68C24.2562 21.176 24.0802 21.808 24.0802 22.576C24.0802 24.24 24.8642 25.072 26.4322 25.072C27.4562 25.072 28.2642 24.8 28.8562 24.256ZM38.8652 31.312C39.9052 31.328 40.6172 31.008 41.0012 30.352C41.4012 29.68 41.6492 28.68 41.7452 27.352C40.9452 27.832 40.0812 28.072 39.1532 28.072C37.6012 28.072 36.3052 27.6 35.2652 26.656C34.2252 25.696 33.7052 24.344 33.7052 22.6C33.7052 20.952 34.2012 19.584 35.1932 18.496C36.1852 17.408 37.6012 16.864 39.4412 16.864C40.5132 16.864 41.4332 17.064 42.2012 17.464C42.9692 17.864 43.5612 18.448 43.9772 19.216C44.4092 19.984 44.7132 20.848 44.8892 21.808C45.0812 22.768 45.1772 23.872 45.1772 25.12C45.1772 28.08 44.6732 30.336 43.6652 31.888C42.6732 33.44 41.1692 34.216 39.1532 34.216C38.8172 34.216 38.4492 34.192 38.0492 34.144C37.6652 34.112 37.2092 34.04 36.6812 33.928C36.1692 33.8 35.7292 33.6 35.3612 33.328C35.0092 33.056 34.8092 32.728 34.7612 32.344C34.7132 31.96 34.8252 31.616 35.0972 31.312C35.3852 31.008 35.7692 30.856 36.2492 30.856C36.4892 30.856 36.8812 30.928 37.4252 31.072C37.9852 31.216 38.4652 31.296 38.8652 31.312ZM41.8172 24.256V23.968C41.8172 21.264 40.9852 19.912 39.3212 19.912C38.5212 19.912 37.9372 20.168 37.5692 20.68C37.2172 21.176 37.0412 21.808 37.0412 22.576C37.0412 24.24 37.8252 25.072 39.3932 25.072C40.4172 25.072 41.2252 24.8 41.8172 24.256Z" fill="#1D2E5B"/>
    <line opacity="0.1" x1="17" y1="38.5" x2="48" y2="38.5" stroke="black"/>
    <path opacity="0.4" d="M21.0362 50.684V42.396C21.0362 42.2467 21.0876 42.1207 21.1902 42.018C21.3022 41.906 21.4329 41.85 21.5822 41.85C21.7409 41.85 21.8716 41.906 21.9742 42.018C22.0769 42.1207 22.1282 42.2467 22.1282 42.396V50.684C22.1282 50.992 22.1936 51.2113 22.3242 51.342C22.3896 51.426 22.4222 51.5147 22.4222 51.608C22.4222 51.748 22.3709 51.8693 22.2682 51.972C22.1749 52.0653 22.0582 52.112 21.9182 52.112C21.3302 52.112 21.0362 51.636 21.0362 50.684ZM26.4338 51.146C26.8351 51.146 27.3205 51.0153 27.8898 50.754C27.9458 50.726 28.0111 50.712 28.0858 50.712C28.2258 50.712 28.3425 50.7633 28.4358 50.866C28.5291 50.9593 28.5758 51.0713 28.5758 51.202C28.5758 51.51 28.3238 51.7387 27.8198 51.888C27.3158 52.0373 26.8118 52.112 26.3078 52.112C25.5331 52.112 24.9218 51.8973 24.4738 51.468C24.0351 51.0293 23.8158 50.4693 23.8158 49.788V47.17C23.8158 46.47 24.0398 45.9007 24.4878 45.462C24.9358 45.0233 25.5658 44.804 26.3778 44.804C27.1338 44.804 27.7078 45.0093 28.0998 45.42C28.5011 45.8213 28.7018 46.3767 28.7018 47.086C28.7018 48.4673 27.9131 49.158 26.3358 49.158C25.8785 49.158 25.4025 49.116 24.9078 49.032V49.858C24.9078 50.2593 25.0385 50.5767 25.2998 50.81C25.5611 51.034 25.9391 51.146 26.4338 51.146ZM27.6238 47.086C27.6238 46.2273 27.1991 45.798 26.3498 45.798C25.9018 45.798 25.5471 45.9147 25.2858 46.148C25.0338 46.372 24.9078 46.68 24.9078 47.072V48.136C25.3931 48.2013 25.8831 48.234 26.3778 48.234C26.8631 48.234 27.1898 48.1313 27.3578 47.926C27.5351 47.7113 27.6238 47.4313 27.6238 47.086ZM34.9258 45.532L33.0218 51.454C32.8724 51.8927 32.6344 52.112 32.3078 52.112C32.1211 52.112 31.9718 52.0653 31.8598 51.972C31.7571 51.8693 31.6684 51.7013 31.5938 51.468L29.6478 45.49C29.5918 45.3313 29.6244 45.1867 29.7458 45.056C29.8671 44.916 30.0118 44.846 30.1798 44.846C30.4224 44.846 30.5858 44.9673 30.6698 45.21L32.3078 50.488L33.9178 45.21C34.0018 44.9673 34.1651 44.846 34.4078 44.846C34.5758 44.846 34.7158 44.916 34.8278 45.056C34.9398 45.196 34.9724 45.3547 34.9258 45.532ZM38.4787 51.146C38.88 51.146 39.3654 51.0153 39.9347 50.754C39.9907 50.726 40.056 50.712 40.1307 50.712C40.2707 50.712 40.3874 50.7633 40.4807 50.866C40.574 50.9593 40.6207 51.0713 40.6207 51.202C40.6207 51.51 40.3687 51.7387 39.8647 51.888C39.3607 52.0373 38.8567 52.112 38.3527 52.112C37.578 52.112 36.9667 51.8973 36.5187 51.468C36.08 51.0293 35.8607 50.4693 35.8607 49.788V47.17C35.8607 46.47 36.0847 45.9007 36.5327 45.462C36.9807 45.0233 37.6107 44.804 38.4227 44.804C39.1787 44.804 39.7527 45.0093 40.1447 45.42C40.546 45.8213 40.7467 46.3767 40.7467 47.086C40.7467 48.4673 39.958 49.158 38.3807 49.158C37.9234 49.158 37.4474 49.116 36.9527 49.032V49.858C36.9527 50.2593 37.0834 50.5767 37.3447 50.81C37.606 51.034 37.984 51.146 38.4787 51.146ZM39.6687 47.086C39.6687 46.2273 39.244 45.798 38.3947 45.798C37.9467 45.798 37.592 45.9147 37.3307 46.148C37.0787 46.372 36.9527 46.68 36.9527 47.072V48.136C37.438 48.2013 37.928 48.234 38.4227 48.234C38.908 48.234 39.2347 48.1313 39.4027 47.926C39.58 47.7113 39.6687 47.4313 39.6687 47.086ZM42.1593 50.684V42.396C42.1593 42.2467 42.2106 42.1207 42.3133 42.018C42.4253 41.906 42.556 41.85 42.7053 41.85C42.864 41.85 42.9946 41.906 43.0973 42.018C43.2 42.1207 43.2513 42.2467 43.2513 42.396V50.684C43.2513 50.992 43.3166 51.2113 43.4473 51.342C43.5126 51.426 43.5453 51.5147 43.5453 51.608C43.5453 51.748 43.494 51.8693 43.3913 51.972C43.298 52.0653 43.1813 52.112 43.0413 52.112C42.4533 52.112 42.1593 51.636 42.1593 50.684Z" fill="black"/>
  </symbol>
  <symbol id="level-80-thin" viewBox="0 0 64 64" fill="none" xmlns="http://www.w3.org/2000/svg">
    <path d="M4.93242 19.0638C2.18934 24.8033 1.34174 31.2663 2.51205 37.5191C3.68236 43.7719 6.80999 49.4909 11.4432 53.8499C16.0764 58.2089 21.9752 60.9823 28.2877 61.7694C34.6002 62.5566 40.9995 61.3168 46.5613 58.2291C52.1231 55.1415 56.5594 50.3658 59.2295 44.5919C61.8995 38.8179 62.6651 32.3447 61.4156 26.1073C60.166 19.8698 56.9661 14.191 52.278 9.89114C47.5899 5.59126 41.6563 2.89292 35.3344 2.18588" stroke="#FF8D30" stroke-width="3" stroke-linecap="round"/>
    <path d="M32.5042 29.032C32.5042 30.536 31.9362 31.776 30.8002 32.752C29.6802 33.728 28.2402 34.216 26.4802 34.216C24.7362 34.216 23.2882 33.736 22.1362 32.776C21.0002 31.816 20.4322 30.6 20.4322 29.128C20.4322 27.448 21.2242 26.096 22.8082 25.072C21.6242 24.176 21.0322 23.008 21.0322 21.568C21.0322 20.144 21.5522 19.008 22.5922 18.16C23.6322 17.312 24.9202 16.888 26.4562 16.888C27.9922 16.888 29.2802 17.32 30.3202 18.184C31.3602 19.032 31.8802 20.128 31.8802 21.472C31.8802 22.848 31.2882 23.992 30.1042 24.904C31.7042 25.96 32.5042 27.336 32.5042 29.032ZM28.5922 21.544C28.5922 21.032 28.3842 20.608 27.9682 20.272C27.5682 19.936 27.0722 19.768 26.4802 19.768C25.8722 19.768 25.3602 19.936 24.9442 20.272C24.5442 20.608 24.3442 21.032 24.3442 21.544C24.3442 22.072 24.5522 22.52 24.9682 22.888C25.3842 23.24 25.9042 23.48 26.5282 23.608C27.1362 23.464 27.6322 23.208 28.0162 22.84C28.4002 22.472 28.5922 22.04 28.5922 21.544ZM29.1682 29.032C29.1682 28.392 28.9042 27.864 28.3762 27.448C27.8642 27.016 27.2082 26.712 26.4082 26.536C25.6242 26.696 24.9842 27 24.4882 27.448C24.0082 27.88 23.7682 28.408 23.7682 29.032C23.7682 29.672 24.0242 30.208 24.5362 30.64C25.0642 31.072 25.7122 31.288 26.4802 31.288C27.2482 31.288 27.8882 31.072 28.4002 30.64C28.9122 30.192 29.1682 29.656 29.1682 29.032ZM41.6492 22.192C41.6492 20.448 40.9132 19.576 39.4412 19.576C37.9692 19.576 37.2332 20.448 37.2332 22.192V28.96C37.2332 29.664 37.4252 30.224 37.8092 30.64C38.1932 31.056 38.7372 31.264 39.4412 31.264C40.1452 31.264 40.6892 31.056 41.0732 30.64C41.4572 30.224 41.6492 29.664 41.6492 28.96V22.192ZM35.2892 18.256C36.2172 17.184 37.6012 16.648 39.4412 16.648C41.2812 16.648 42.6652 17.184 43.5932 18.256C44.5212 19.312 44.9852 20.68 44.9852 22.36V28.96C44.9852 30.48 44.4892 31.736 43.4972 32.728C42.5212 33.72 41.1692 34.216 39.4412 34.216C37.7132 34.216 36.3532 33.72 35.3612 32.728C34.3852 31.736 33.8972 30.48 33.8972 28.96V22.36C33.8972 20.68 34.3612 19.312 35.2892 18.256Z" fill="#1D2E5B"/>
    <line opacity="0.1" x1="17" y1="38.5" x2="48" y2="38.5" stroke="black"/>
    <path opacity="0.4" d="M21.0362 50.684V42.396C21.0362 42.2467 21.0876 42.1207 21.1902 42.018C21.3022 41.906 21.4329 41.85 21.5822 41.85C21.7409 41.85 21.8716 41.906 21.9742 42.018C22.0769 42.1207 22.1282 42.2467 22.1282 42.396V50.684C22.1282 50.992 22.1936 51.2113 22.3242 51.342C22.3896 51.426 22.4222 51.5147 22.4222 51.608C22.4222 51.748 22.3709 51.8693 22.2682 51.972C22.1749 52.0653 22.0582 52.112 21.9182 52.112C21.3302 52.112 21.0362 51.636 21.0362 50.684ZM26.4338 51.146C26.8351 51.146 27.3205 51.0153 27.8898 50.754C27.9458 50.726 28.0111 50.712 28.0858 50.712C28.2258 50.712 28.3425 50.7633 28.4358 50.866C28.5291 50.9593 28.5758 51.0713 28.5758 51.202C28.5758 51.51 28.3238 51.7387 27.8198 51.888C27.3158 52.0373 26.8118 52.112 26.3078 52.112C25.5331 52.112 24.9218 51.8973 24.4738 51.468C24.0351 51.0293 23.8158 50.4693 23.8158 49.788V47.17C23.8158 46.47 24.0398 45.9007 24.4878 45.462C24.9358 45.0233 25.5658 44.804 26.3778 44.804C27.1338 44.804 27.7078 45.0093 28.0998 45.42C28.5011 45.8213 28.7018 46.3767 28.7018 47.086C28.7018 48.4673 27.9131 49.158 26.3358 49.158C25.8785 49.158 25.4025 49.116 24.9078 49.032V49.858C24.9078 50.2593 25.0385 50.5767 25.2998 50.81C25.5611 51.034 25.9391 51.146 26.4338 51.146ZM27.6238 47.086C27.6238 46.2273 27.1991 45.798 26.3498 45.798C25.9018 45.798 25.5471 45.9147 25.2858 46.148C25.0338 46.372 24.9078 46.68 24.9078 47.072V48.136C25.3931 48.2013 25.8831 48.234 26.3778 48.234C26.8631 48.234 27.1898 48.1313 27.3578 47.926C27.5351 47.7113 27.6238 47.4313 27.6238 47.086ZM34.9258 45.532L33.0218 51.454C32.8724 51.8927 32.6344 52.112 32.3078 52.112C32.1211 52.112 31.9718 52.0653 31.8598 51.972C31.7571 51.8693 31.6684 51.7013 31.5938 51.468L29.6478 45.49C29.5918 45.3313 29.6244 45.1867 29.7458 45.056C29.8671 44.916 30.0118 44.846 30.1798 44.846C30.4224 44.846 30.5858 44.9673 30.6698 45.21L32.3078 50.488L33.9178 45.21C34.0018 44.9673 34.1651 44.846 34.4078 44.846C34.5758 44.846 34.7158 44.916 34.8278 45.056C34.9398 45.196 34.9724 45.3547 34.9258 45.532ZM38.4787 51.146C38.88 51.146 39.3654 51.0153 39.9347 50.754C39.9907 50.726 40.056 50.712 40.1307 50.712C40.2707 50.712 40.3874 50.7633 40.4807 50.866C40.574 50.9593 40.6207 51.0713 40.6207 51.202C40.6207 51.51 40.3687 51.7387 39.8647 51.888C39.3607 52.0373 38.8567 52.112 38.3527 52.112C37.578 52.112 36.9667 51.8973 36.5187 51.468C36.08 51.0293 35.8607 50.4693 35.8607 49.788V47.17C35.8607 46.47 36.0847 45.9007 36.5327 45.462C36.9807 45.0233 37.6107 44.804 38.4227 44.804C39.1787 44.804 39.7527 45.0093 40.1447 45.42C40.546 45.8213 40.7467 46.3767 40.7467 47.086C40.7467 48.4673 39.958 49.158 38.3807 49.158C37.9234 49.158 37.4474 49.116 36.9527 49.032V49.858C36.9527 50.2593 37.0834 50.5767 37.3447 50.81C37.606 51.034 37.984 51.146 38.4787 51.146ZM39.6687 47.086C39.6687 46.2273 39.244 45.798 38.3947 45.798C37.9467 45.798 37.592 45.9147 37.3307 46.148C37.0787 46.372 36.9527 46.68 36.9527 47.072V48.136C37.438 48.2013 37.928 48.234 38.4227 48.234C38.908 48.234 39.2347 48.1313 39.4027 47.926C39.58 47.7113 39.6687 47.4313 39.6687 47.086ZM42.1593 50.684V42.396C42.1593 42.2467 42.2106 42.1207 42.3133 42.018C42.4253 41.906 42.556 41.85 42.7053 41.85C42.864 41.85 42.9946 41.906 43.0973 42.018C43.2 42.1207 43.2513 42.2467 43.2513 42.396V50.684C43.2513 50.992 43.3166 51.2113 43.4473 51.342C43.5126 51.426 43.5453 51.5147 43.5453 51.608C43.5453 51.748 43.494 51.8693 43.3913 51.972C43.298 52.0653 43.1813 52.112 43.0413 52.112C42.4533 52.112 42.1593 51.636 42.1593 50.684Z" fill="black"/>
  </symbol>
  <symbol id="level-25-thin" viewBox="0 0 62 62" fill="none" xmlns="http://www.w3.org/2000/svg">
    <path d="M59.8014 35.4465C60.254 31.5329 59.9313 27.5685 58.8518 23.7796C57.7723 19.9908 55.9571 16.4516 53.5098 13.3643C51.0625 10.2769 48.0311 7.70183 44.5886 5.78602C41.1461 3.87022 37.36 2.65122 33.4465 2.19863" stroke="#FF8D30" stroke-width="3" stroke-linecap="round"/>
    <path d="M29.6162 31.432C29.9362 31.72 30.0962 32.072 30.0962 32.488C30.0962 32.904 29.9362 33.264 29.6162 33.568C29.2962 33.856 28.9042 34 28.4402 34H20.5442C20.0482 34 19.6402 33.848 19.3202 33.544C19.0002 33.24 18.8402 32.864 18.8402 32.416C18.8402 31.936 18.9042 31.56 19.0322 31.288C19.3362 30.632 19.7602 29.968 20.3042 29.296C20.8482 28.608 21.3042 28.088 21.6722 27.736C22.0562 27.368 22.6482 26.824 23.4482 26.104C23.5282 26.04 23.8002 25.808 24.2642 25.408C24.7282 24.992 25.0402 24.704 25.2002 24.544C25.3602 24.368 25.5922 24.104 25.8962 23.752C26.2002 23.4 26.4082 23.064 26.5202 22.744C26.6322 22.424 26.6882 22.096 26.6882 21.76C26.6882 21.12 26.4882 20.6 26.0882 20.2C25.7042 19.784 25.1522 19.576 24.4322 19.576C23.6962 19.576 23.0242 19.704 22.4162 19.96C22.3042 20.008 22.1362 20.096 21.9122 20.224C21.7042 20.336 21.5042 20.432 21.3122 20.512C21.1202 20.576 20.9202 20.608 20.7122 20.608C20.2802 20.608 19.8962 20.472 19.5602 20.2C19.2402 19.928 19.0802 19.576 19.0802 19.144C19.0802 18.36 19.6722 17.752 20.8562 17.32C22.0562 16.872 23.2562 16.648 24.4562 16.648C26.1522 16.648 27.4962 17.112 28.4882 18.04C29.4962 18.952 30.0002 20.112 30.0002 21.52C30.0002 23.232 29.3682 24.744 28.1042 26.056C27.7842 26.392 26.9922 27.128 25.7282 28.264C24.4642 29.4 23.5842 30.312 23.0882 31H28.4402C28.9042 31 29.2962 31.144 29.6162 31.432ZM42.9132 28.36C42.9132 29.928 42.4412 31.296 41.4972 32.464C40.5532 33.616 39.1692 34.192 37.3452 34.192C36.9612 34.192 36.5132 34.16 36.0012 34.096C35.4892 34.048 34.9052 33.952 34.2492 33.808C33.6092 33.648 33.0652 33.408 32.6172 33.088C32.1852 32.752 31.9692 32.352 31.9692 31.888C31.9692 31.488 32.1212 31.144 32.4252 30.856C32.7452 30.552 33.1292 30.4 33.5772 30.4C33.8332 30.4 34.2812 30.552 34.9212 30.856C35.5772 31.144 36.2012 31.288 36.7932 31.288C37.7852 31.288 38.4972 31.024 38.9292 30.496C39.3612 29.952 39.5772 29.272 39.5772 28.456C39.5772 27.608 39.3612 26.968 38.9292 26.536C38.5132 26.088 37.9612 25.864 37.2732 25.864C36.7932 25.864 36.3532 25.968 35.9532 26.176C35.3132 26.672 34.7372 26.92 34.2252 26.92C33.7452 26.92 33.3372 26.768 33.0012 26.464C32.6812 26.16 32.5292 25.768 32.5452 25.288L32.7852 18.664C32.8012 18.184 32.9852 17.8 33.3372 17.512C33.7052 17.208 34.1292 17.056 34.6092 17.056H40.3932C40.8892 17.056 41.3132 17.184 41.6652 17.44C42.0332 17.68 42.2172 18.056 42.2172 18.568C42.2172 19.064 42.0332 19.432 41.6652 19.672C41.3132 19.912 40.8892 20.032 40.3932 20.032H35.9052L35.7612 23.152C36.1932 23.024 36.7132 22.96 37.3212 22.96C38.9852 22.96 40.3292 23.448 41.3532 24.424C42.3932 25.384 42.9132 26.696 42.9132 28.36Z" fill="#1D2E5B"/>
    <line opacity="0.1" x1="15" y1="38.5" x2="46" y2="38.5" stroke="black"/>
    <path opacity="0.4" d="M19.0362 50.684V42.396C19.0362 42.2467 19.0876 42.1207 19.1902 42.018C19.3022 41.906 19.4329 41.85 19.5822 41.85C19.7409 41.85 19.8716 41.906 19.9742 42.018C20.0769 42.1207 20.1282 42.2467 20.1282 42.396V50.684C20.1282 50.992 20.1936 51.2113 20.3242 51.342C20.3896 51.426 20.4222 51.5147 20.4222 51.608C20.4222 51.748 20.3709 51.8693 20.2682 51.972C20.1749 52.0653 20.0582 52.112 19.9182 52.112C19.3302 52.112 19.0362 51.636 19.0362 50.684ZM24.4338 51.146C24.8351 51.146 25.3205 51.0153 25.8898 50.754C25.9458 50.726 26.0111 50.712 26.0858 50.712C26.2258 50.712 26.3425 50.7633 26.4358 50.866C26.5291 50.9593 26.5758 51.0713 26.5758 51.202C26.5758 51.51 26.3238 51.7387 25.8198 51.888C25.3158 52.0373 24.8118 52.112 24.3078 52.112C23.5331 52.112 22.9218 51.8973 22.4738 51.468C22.0351 51.0293 21.8158 50.4693 21.8158 49.788V47.17C21.8158 46.47 22.0398 45.9007 22.4878 45.462C22.9358 45.0233 23.5658 44.804 24.3778 44.804C25.1338 44.804 25.7078 45.0093 26.0998 45.42C26.5011 45.8213 26.7018 46.3767 26.7018 47.086C26.7018 48.4673 25.9131 49.158 24.3358 49.158C23.8785 49.158 23.4025 49.116 22.9078 49.032V49.858C22.9078 50.2593 23.0385 50.5767 23.2998 50.81C23.5611 51.034 23.9391 51.146 24.4338 51.146ZM25.6238 47.086C25.6238 46.2273 25.1991 45.798 24.3498 45.798C23.9018 45.798 23.5471 45.9147 23.2858 46.148C23.0338 46.372 22.9078 46.68 22.9078 47.072V48.136C23.3931 48.2013 23.8831 48.234 24.3778 48.234C24.8631 48.234 25.1898 48.1313 25.3578 47.926C25.5351 47.7113 25.6238 47.4313 25.6238 47.086ZM32.9258 45.532L31.0218 51.454C30.8724 51.8927 30.6344 52.112 30.3078 52.112C30.1211 52.112 29.9718 52.0653 29.8598 51.972C29.7571 51.8693 29.6684 51.7013 29.5938 51.468L27.6478 45.49C27.5918 45.3313 27.6244 45.1867 27.7458 45.056C27.8671 44.916 28.0118 44.846 28.1798 44.846C28.4224 44.846 28.5858 44.9673 28.6698 45.21L30.3078 50.488L31.9178 45.21C32.0018 44.9673 32.1651 44.846 32.4078 44.846C32.5758 44.846 32.7158 44.916 32.8278 45.056C32.9398 45.196 32.9724 45.3547 32.9258 45.532ZM36.4787 51.146C36.88 51.146 37.3654 51.0153 37.9347 50.754C37.9907 50.726 38.056 50.712 38.1307 50.712C38.2707 50.712 38.3874 50.7633 38.4807 50.866C38.574 50.9593 38.6207 51.0713 38.6207 51.202C38.6207 51.51 38.3687 51.7387 37.8647 51.888C37.3607 52.0373 36.8567 52.112 36.3527 52.112C35.578 52.112 34.9667 51.8973 34.5187 51.468C34.08 51.0293 33.8607 50.4693 33.8607 49.788V47.17C33.8607 46.47 34.0847 45.9007 34.5327 45.462C34.9807 45.0233 35.6107 44.804 36.4227 44.804C37.1787 44.804 37.7527 45.0093 38.1447 45.42C38.546 45.8213 38.7467 46.3767 38.7467 47.086C38.7467 48.4673 37.958 49.158 36.3807 49.158C35.9234 49.158 35.4474 49.116 34.9527 49.032V49.858C34.9527 50.2593 35.0834 50.5767 35.3447 50.81C35.606 51.034 35.984 51.146 36.4787 51.146ZM37.6687 47.086C37.6687 46.2273 37.244 45.798 36.3947 45.798C35.9467 45.798 35.592 45.9147 35.3307 46.148C35.0787 46.372 34.9527 46.68 34.9527 47.072V48.136C35.438 48.2013 35.928 48.234 36.4227 48.234C36.908 48.234 37.2347 48.1313 37.4027 47.926C37.58 47.7113 37.6687 47.4313 37.6687 47.086ZM40.1593 50.684V42.396C40.1593 42.2467 40.2106 42.1207 40.3133 42.018C40.4253 41.906 40.556 41.85 40.7053 41.85C40.864 41.85 40.9946 41.906 41.0973 42.018C41.2 42.1207 41.2513 42.2467 41.2513 42.396V50.684C41.2513 50.992 41.3166 51.2113 41.4473 51.342C41.5126 51.426 41.5453 51.5147 41.5453 51.608C41.5453 51.748 41.494 51.8693 41.3913 51.972C41.298 52.0653 41.1813 52.112 41.0413 52.112C40.4533 52.112 40.1593 51.636 40.1593 50.684Z" fill="black"/>
  </symbol>
  <symbol id="level-50-thin" viewBox="0 0 62 64" fill="none" xmlns="http://www.w3.org/2000/svg">
    <path d="M30 62C37.9565 62 45.5871 58.8393 51.2132 53.2132C56.8393 47.5871 60 39.9565 60 32C60 24.0435 56.8393 16.4129 51.2132 10.7868C45.5871 5.16071 37.9565 2 30 2" stroke="#FF8D30" stroke-width="3" stroke-linecap="round"/>
    <path d="M29.9522 28.36C29.9522 29.928 29.4802 31.296 28.5362 32.464C27.5922 33.616 26.2082 34.192 24.3842 34.192C24.0002 34.192 23.5522 34.16 23.0402 34.096C22.5282 34.048 21.9442 33.952 21.2882 33.808C20.6482 33.648 20.1042 33.408 19.6562 33.088C19.2242 32.752 19.0082 32.352 19.0082 31.888C19.0082 31.488 19.1602 31.144 19.4642 30.856C19.7842 30.552 20.1682 30.4 20.6162 30.4C20.8722 30.4 21.3202 30.552 21.9602 30.856C22.6162 31.144 23.2402 31.288 23.8322 31.288C24.8242 31.288 25.5362 31.024 25.9682 30.496C26.4002 29.952 26.6162 29.272 26.6162 28.456C26.6162 27.608 26.4002 26.968 25.9682 26.536C25.5522 26.088 25.0002 25.864 24.3122 25.864C23.8322 25.864 23.3922 25.968 22.9922 26.176C22.3522 26.672 21.7762 26.92 21.2642 26.92C20.7842 26.92 20.3762 26.768 20.0402 26.464C19.7202 26.16 19.5682 25.768 19.5842 25.288L19.8242 18.664C19.8402 18.184 20.0242 17.8 20.3762 17.512C20.7442 17.208 21.1682 17.056 21.6482 17.056H27.4322C27.9282 17.056 28.3522 17.184 28.7042 17.44C29.0722 17.68 29.2562 18.056 29.2562 18.568C29.2562 19.064 29.0722 19.432 28.7042 19.672C28.3522 19.912 27.9282 20.032 27.4322 20.032H22.9442L22.8002 23.152C23.2322 23.024 23.7522 22.96 24.3602 22.96C26.0242 22.96 27.3682 23.448 28.3922 24.424C29.4322 25.384 29.9522 26.696 29.9522 28.36ZM39.6492 22.192C39.6492 20.448 38.9132 19.576 37.4412 19.576C35.9692 19.576 35.2332 20.448 35.2332 22.192V28.96C35.2332 29.664 35.4252 30.224 35.8092 30.64C36.1932 31.056 36.7372 31.264 37.4412 31.264C38.1452 31.264 38.6892 31.056 39.0732 30.64C39.4572 30.224 39.6492 29.664 39.6492 28.96V22.192ZM33.2892 18.256C34.2172 17.184 35.6012 16.648 37.4412 16.648C39.2812 16.648 40.6652 17.184 41.5932 18.256C42.5212 19.312 42.9852 20.68 42.9852 22.36V28.96C42.9852 30.48 42.4892 31.736 41.4972 32.728C40.5212 33.72 39.1692 34.216 37.4412 34.216C35.7132 34.216 34.3532 33.72 33.3612 32.728C32.3852 31.736 31.8972 30.48 31.8972 28.96V22.36C31.8972 20.68 32.3612 19.312 33.2892 18.256Z" fill="#1D2E5B"/>
    <line opacity="0.1" x1="15" y1="38.5" x2="46" y2="38.5" stroke="black"/>
    <path opacity="0.4" d="M19.0362 50.684V42.396C19.0362 42.2467 19.0876 42.1207 19.1902 42.018C19.3022 41.906 19.4329 41.85 19.5822 41.85C19.7409 41.85 19.8716 41.906 19.9742 42.018C20.0769 42.1207 20.1282 42.2467 20.1282 42.396V50.684C20.1282 50.992 20.1936 51.2113 20.3242 51.342C20.3896 51.426 20.4222 51.5147 20.4222 51.608C20.4222 51.748 20.3709 51.8693 20.2682 51.972C20.1749 52.0653 20.0582 52.112 19.9182 52.112C19.3302 52.112 19.0362 51.636 19.0362 50.684ZM24.4338 51.146C24.8351 51.146 25.3205 51.0153 25.8898 50.754C25.9458 50.726 26.0111 50.712 26.0858 50.712C26.2258 50.712 26.3425 50.7633 26.4358 50.866C26.5291 50.9593 26.5758 51.0713 26.5758 51.202C26.5758 51.51 26.3238 51.7387 25.8198 51.888C25.3158 52.0373 24.8118 52.112 24.3078 52.112C23.5331 52.112 22.9218 51.8973 22.4738 51.468C22.0351 51.0293 21.8158 50.4693 21.8158 49.788V47.17C21.8158 46.47 22.0398 45.9007 22.4878 45.462C22.9358 45.0233 23.5658 44.804 24.3778 44.804C25.1338 44.804 25.7078 45.0093 26.0998 45.42C26.5011 45.8213 26.7018 46.3767 26.7018 47.086C26.7018 48.4673 25.9131 49.158 24.3358 49.158C23.8785 49.158 23.4025 49.116 22.9078 49.032V49.858C22.9078 50.2593 23.0385 50.5767 23.2998 50.81C23.5611 51.034 23.9391 51.146 24.4338 51.146ZM25.6238 47.086C25.6238 46.2273 25.1991 45.798 24.3498 45.798C23.9018 45.798 23.5471 45.9147 23.2858 46.148C23.0338 46.372 22.9078 46.68 22.9078 47.072V48.136C23.3931 48.2013 23.8831 48.234 24.3778 48.234C24.8631 48.234 25.1898 48.1313 25.3578 47.926C25.5351 47.7113 25.6238 47.4313 25.6238 47.086ZM32.9258 45.532L31.0218 51.454C30.8724 51.8927 30.6344 52.112 30.3078 52.112C30.1211 52.112 29.9718 52.0653 29.8598 51.972C29.7571 51.8693 29.6684 51.7013 29.5938 51.468L27.6478 45.49C27.5918 45.3313 27.6244 45.1867 27.7458 45.056C27.8671 44.916 28.0118 44.846 28.1798 44.846C28.4224 44.846 28.5858 44.9673 28.6698 45.21L30.3078 50.488L31.9178 45.21C32.0018 44.9673 32.1651 44.846 32.4078 44.846C32.5758 44.846 32.7158 44.916 32.8278 45.056C32.9398 45.196 32.9724 45.3547 32.9258 45.532ZM36.4787 51.146C36.88 51.146 37.3654 51.0153 37.9347 50.754C37.9907 50.726 38.056 50.712 38.1307 50.712C38.2707 50.712 38.3874 50.7633 38.4807 50.866C38.574 50.9593 38.6207 51.0713 38.6207 51.202C38.6207 51.51 38.3687 51.7387 37.8647 51.888C37.3607 52.0373 36.8567 52.112 36.3527 52.112C35.578 52.112 34.9667 51.8973 34.5187 51.468C34.08 51.0293 33.8607 50.4693 33.8607 49.788V47.17C33.8607 46.47 34.0847 45.9007 34.5327 45.462C34.9807 45.0233 35.6107 44.804 36.4227 44.804C37.1787 44.804 37.7527 45.0093 38.1447 45.42C38.546 45.8213 38.7467 46.3767 38.7467 47.086C38.7467 48.4673 37.958 49.158 36.3807 49.158C35.9234 49.158 35.4474 49.116 34.9527 49.032V49.858C34.9527 50.2593 35.0834 50.5767 35.3447 50.81C35.606 51.034 35.984 51.146 36.4787 51.146ZM37.6687 47.086C37.6687 46.2273 37.244 45.798 36.3947 45.798C35.9467 45.798 35.592 45.9147 35.3307 46.148C35.0787 46.372 34.9527 46.68 34.9527 47.072V48.136C35.438 48.2013 35.928 48.234 36.4227 48.234C36.908 48.234 37.2347 48.1313 37.4027 47.926C37.58 47.7113 37.6687 47.4313 37.6687 47.086ZM40.1593 50.684V42.396C40.1593 42.2467 40.2106 42.1207 40.3133 42.018C40.4253 41.906 40.556 41.85 40.7053 41.85C40.864 41.85 40.9946 41.906 41.0973 42.018C41.2 42.1207 41.2513 42.2467 41.2513 42.396V50.684C41.2513 50.992 41.3166 51.2113 41.4473 51.342C41.5126 51.426 41.5453 51.5147 41.5453 51.608C41.5453 51.748 41.494 51.8693 41.3913 51.972C41.298 52.0653 41.1813 52.112 41.0413 52.112C40.4533 52.112 40.1593 51.636 40.1593 50.684Z" fill="black"/>
  </symbol>
  <symbol id="like-disabled" viewBox="0 0 21 19" fill="none" xmlns="http://www.w3.org/2000/svg">
    <g opacity="0.5">
      <path fill-rule="evenodd" clip-rule="evenodd" d="M10.2561 7.12436L11.3753 4.77557C11.6532 4.19396 12.1351 3.35764 12.8174 2.68149C13.4883 2.01585 14.292 1.5629 15.2634 1.5629C17.3615 1.5629 19.0189 3.30381 19.0189 5.39658C19.0189 6.9865 18.3254 8.10903 16.6805 9.82106C16.2586 10.2596 15.7779 10.7335 15.2459 11.2561C13.8589 12.6215 12.1339 14.3204 10.2561 16.5917C8.3784 14.3204 6.6534 12.6215 5.26638 11.2561C4.73436 10.7335 4.25241 10.2583 3.8318 9.82106C2.1869 8.10903 1.4934 6.9865 1.4934 5.39658C1.4934 3.30381 3.15081 1.5629 5.24886 1.5629C6.22027 1.5629 7.02394 2.01585 7.69491 2.68149C8.37715 3.35764 8.8591 4.19396 9.13701 4.77557L10.2561 7.12436ZM10.7468 18.0109C10.6866 18.0858 10.6114 18.146 10.5267 18.1873C10.4419 18.2286 10.3496 18.25 10.2561 18.25C10.1627 18.25 10.0704 18.2286 9.9856 18.1873C9.90084 18.146 9.8257 18.0858 9.76542 18.0109C7.76126 15.5138 5.94737 13.7283 4.45395 12.2591C1.86894 9.7134 0.241577 8.11297 0.241577 5.39658C0.241577 2.55414 2.48233 0.25 5.24886 0.25C7.25177 0.25 8.65255 1.62855 9.51005 2.88631C9.83552 3.36552 10.0834 3.82635 10.2561 4.18871C10.4727 3.73519 10.7221 3.29978 11.0022 2.88631C11.8597 1.62723 13.2605 0.25 15.2634 0.25C18.0299 0.25 20.2707 2.55414 20.2707 5.39658C20.2707 8.11297 18.6433 9.7134 16.0583 12.2591C14.5649 13.7296 12.751 15.5151 10.7468 18.0096V18.0109Z" fill="#192144"/>
    </g>
  </symbol>
  <symbol id="plus" viewBox="0 0 26 26" fill="none" xmlns="http://www.w3.org/2000/svg">
    <rect y="12" width="26" height="2" rx="1" fill="#1D2E5B"/>
    <rect x="12" y="26" width="26" height="2" rx="1" transform="rotate(-90 12 26)" fill="#1D2E5B"/>
  </symbol>
</svg>
