<svg width="61" height="16" viewBox="0 0 61 16" fill="none" xmlns="http://www.w3.org/2000/svg">
<path opacity="0.3" d="M23.256 13.312V4.768L21.64 5.792C21.2773 6.00533 21 6.112 20.808 6.112C20.6053 6.112 20.424 6.048 20.264 5.92C20.104 5.792 20.024 5.61067 20.024 5.376C20.024 5.04533 20.152 4.80533 20.408 4.656L23.576 2.72C23.7253 2.624 23.8907 2.576 24.072 2.576C24.3387 2.576 24.5627 2.66133 24.744 2.832C24.9253 3.00267 25.016 3.21067 25.016 3.456V13.312C25.016 13.5253 24.9253 13.7173 24.744 13.888C24.5733 14.0587 24.3707 14.144 24.136 14.144C23.8907 14.144 23.6827 14.064 23.512 13.904C23.3413 13.7333 23.256 13.536 23.256 13.312ZM35.2485 10.784C35.2485 11.7547 34.8965 12.56 34.1925 13.2C33.4885 13.84 32.5818 14.16 31.4725 14.16C30.3738 14.16 29.4672 13.8507 28.7525 13.232C28.0378 12.6027 27.6805 11.808 27.6805 10.848C27.6805 9.67467 28.2725 8.74133 29.4565 8.048C28.5392 7.41867 28.0805 6.59733 28.0805 5.584C28.0805 4.67733 28.4058 3.952 29.0565 3.408C29.7072 2.864 30.5072 2.592 31.4565 2.592C32.4165 2.592 33.2165 2.86933 33.8565 3.424C34.5072 3.968 34.8325 4.672 34.8325 5.536C34.8325 6.51733 34.3738 7.31733 33.4565 7.936C34.6512 8.65067 35.2485 9.6 35.2485 10.784ZM33.1205 5.584C33.1205 5.15733 32.9605 4.80533 32.6405 4.528C32.3205 4.25067 31.9312 4.112 31.4725 4.112C30.9925 4.112 30.5925 4.25067 30.2725 4.528C29.9632 4.80533 29.8085 5.15733 29.8085 5.584C29.8085 6.02133 29.9685 6.38933 30.2885 6.688C30.6192 6.976 31.0245 7.168 31.5045 7.264C31.9738 7.15733 32.3578 6.95467 32.6565 6.656C32.9658 6.35733 33.1205 6 33.1205 5.584ZM33.5045 10.784C33.5045 10.2613 33.3018 9.83467 32.8965 9.504C32.5018 9.16267 32.0112 8.93333 31.4245 8.816C30.8378 8.93333 30.3578 9.168 29.9845 9.52C29.6112 9.86133 29.4245 10.2827 29.4245 10.784C29.4245 11.3067 29.6165 11.7387 30.0005 12.08C30.3952 12.4213 30.8858 12.592 31.4725 12.592C32.0592 12.592 32.5445 12.4213 32.9285 12.08C33.3125 11.728 33.5045 11.296 33.5045 10.784ZM42.633 4.208C41.545 5.552 40.7343 6.56 40.201 7.232C41.097 7.31733 41.817 7.64267 42.361 8.208C42.9157 8.76267 43.193 9.49333 43.193 10.4C43.193 10.848 43.1183 11.2853 42.969 11.712C42.8303 12.128 42.6223 12.5227 42.345 12.896C42.0677 13.2693 41.689 13.568 41.209 13.792C40.729 14.016 40.185 14.128 39.577 14.128C39.3423 14.128 39.0703 14.112 38.761 14.08C38.4623 14.048 38.1157 13.9893 37.721 13.904C37.337 13.8187 37.017 13.68 36.761 13.488C36.505 13.2853 36.377 13.0507 36.377 12.784C36.377 12.5707 36.4517 12.384 36.601 12.224C36.761 12.064 36.9583 11.984 37.193 11.984C37.3423 11.984 37.641 12.0853 38.089 12.288C38.537 12.4907 38.9583 12.592 39.353 12.592C40.089 12.592 40.6223 12.384 40.953 11.968C41.2837 11.552 41.449 11.056 41.449 10.48C41.449 9.872 41.2677 9.42933 40.905 9.152C40.5423 8.864 40.057 8.72 39.449 8.72C39.289 8.72 39.129 8.752 38.969 8.816C38.809 8.86933 38.6703 8.896 38.553 8.896C38.3503 8.896 38.1743 8.82133 38.025 8.672C37.8757 8.512 37.801 8.33067 37.801 8.128C37.801 7.92533 37.8277 7.78133 37.881 7.696L40.505 4.384H37.449C37.2037 4.384 36.9957 4.304 36.825 4.144C36.665 3.984 36.585 3.792 36.585 3.568C36.585 3.36533 36.6703 3.17333 36.841 2.992C37.0117 2.8 37.2143 2.704 37.449 2.704H41.913C42.1583 2.704 42.3717 2.78933 42.553 2.96C42.745 3.13067 42.841 3.34933 42.841 3.616C42.841 3.81867 42.7717 4.016 42.633 4.208ZM51.3455 12.64C51.5162 12.7893 51.6015 12.976 51.6015 13.2C51.6015 13.424 51.5162 13.616 51.3455 13.776C51.1855 13.9253 50.9828 14 50.7375 14H45.4735C45.2068 14 44.9882 13.92 44.8175 13.76C44.6575 13.5893 44.5775 13.3813 44.5775 13.136C44.5775 12.8373 44.6148 12.608 44.6895 12.448C44.8708 12.032 45.1268 11.6107 45.4575 11.184C45.7882 10.7467 46.0815 10.3947 46.3375 10.128C46.6042 9.86133 46.9668 9.50933 47.4255 9.072C47.5002 8.99733 47.6975 8.816 48.0175 8.528C48.3482 8.22933 48.5775 8.01067 48.7055 7.872C48.8442 7.72267 49.0202 7.52 49.2335 7.264C49.4468 6.99733 49.5962 6.74667 49.6815 6.512C49.7668 6.26667 49.8095 6.01067 49.8095 5.744C49.8095 5.232 49.6548 4.81067 49.3455 4.48C49.0362 4.14933 48.6095 3.984 48.0655 3.984C47.5322 3.984 47.0522 4.07467 46.6255 4.256C46.5402 4.288 46.4282 4.34667 46.2895 4.432C46.1508 4.51733 46.0228 4.58667 45.9055 4.64C45.7988 4.68267 45.6922 4.704 45.5855 4.704C45.3615 4.704 45.1642 4.62933 44.9935 4.48C44.8228 4.33067 44.7375 4.144 44.7375 3.92C44.7375 3.472 45.1108 3.10933 45.8575 2.832C46.6148 2.55467 47.3562 2.416 48.0815 2.416C49.1375 2.416 49.9748 2.72 50.5935 3.328C51.2228 3.92533 51.5375 4.672 51.5375 5.568C51.5375 6.69867 51.1322 7.696 50.3215 8.56C50.0442 8.85867 49.6388 9.25333 49.1055 9.744C48.5828 10.2347 48.1188 10.6933 47.7135 11.12C47.3188 11.5467 46.9988 11.9733 46.7535 12.4H50.7375C50.9828 12.4 51.1855 12.48 51.3455 12.64ZM56.506 13.312V4.768L54.89 5.792C54.5273 6.00533 54.25 6.112 54.058 6.112C53.8553 6.112 53.674 6.048 53.514 5.92C53.354 5.792 53.274 5.61067 53.274 5.376C53.274 5.04533 53.402 4.80533 53.658 4.656L56.826 2.72C56.9753 2.624 57.1407 2.576 57.322 2.576C57.5887 2.576 57.8127 2.66133 57.994 2.832C58.1753 3.00267 58.266 3.21067 58.266 3.456V13.312C58.266 13.5253 58.1753 13.7173 57.994 13.888C57.8233 14.0587 57.6207 14.144 57.386 14.144C57.1407 14.144 56.9327 14.064 56.762 13.904C56.5913 13.7333 56.506 13.536 56.506 13.312Z" fill="#161C35"/>
<path opacity="0.1" d="M4.375 5.92978C4.375 7.45321 5.55275 8.69294 7 8.69294C8.44725 8.69294 9.625 7.45321 9.625 5.92978C9.625 4.40636 8.44725 3.16663 7 3.16663C5.55275 3.16663 4.375 4.40636 4.375 5.92978ZM11.6667 14.8333H12.25V14.2193C12.25 11.8497 10.4177 9.92101 8.16667 9.92101H5.83333C3.58167 9.92101 1.75 11.8497 1.75 14.2193V14.8333H11.6667Z" fill="#192144"/>
</svg>
